<?xml version="1.0" encoding="UTF-8"?><svg xmlns="http://www.w3.org/2000/svg" viewBox="0 0 373 267"><defs><style>.d{fill:#ffdee2;}.e{fill:#fff;}.f{fill:#fbefaf;}.g{fill:#736f6e;}.h{fill:#12100b;}.i{fill:#2a2724;}.j{fill:#2d2a27;}</style></defs><g id="a"/><g id="b"><g id="c"><path class="e" d="M99.24,123.09c6.39,12.34,13.26,24.38,20.62,36.11,1.47,2.36,2.92,5.88,5.4,7.31,3.44,2.01,6.48-.96,9.05-2.93l17.35-13.4c1.67-1.06,2.23-3.23,1.3-4.97-1.02-1.71-3.22-2.28-4.95-1.3l-10.98,8.45-5.28,4.07c-1.67,1.55-3.53,2.88-5.52,3.98l1.82-.49h-.74l1.82,.48c.32,.42,.2,.22-.34-.59l-.74-1.16-1.71-2.71c-.97-1.54-1.93-3.08-2.9-4.63-2.14-3.51-4.25-7.04-6.32-10.6-4.04-6.99-7.92-14.07-11.65-21.24-2.14-4.15-8.41-.49-6.28,3.66l.05-.05Z"/><path class="e" d="M105.41,122.64c10.19-12.88,21.98-24.42,35.09-34.32,13.96-10.47,29.31-18.96,44.52-27.33l-4.38-5.69c-10.6,12.43-23.4,22.58-36,32.84-6.17,5.06-12.34,10.15-18.23,15.61-2.9,2.73-5.74,5.54-8.45,8.45-1.43,1.54-2.85,3.08-4.21,4.78-.66,.77-1.26,1.54-1.94,2.36-.26,.28-.52,.56-.8,.8-.85,.4-.74,.49,.29,.32l1.31,4.95c7.62-11.66,17.4-21.76,28.8-29.77,5.74-4.12,11.91-7.63,18.39-10.46,.35-.15,2.9-.6,2.99-.71s-.65-.79-.66-.79c-.29,0-2.88-5.71-3.79-1.25-2.98,2.42-1.05-.59-4.3,1.43-7.5,4.77-18.51,16.97-26.53,20.93-3.62,1.79-1.05,8.14,2.79,6.62,17.01-6.76,32.68-16.49,46.27-28.74,1.41-1.43,1.4-3.73-.03-5.15-.42-.42-.94-.73-1.51-.9-7.97-1.45-13.2,6.08-17.12,11.86-4.25,6.33-7.48,13.29-9.56,20.62-1.11,3.87,4.83,6.57,6.62,2.79,2.59-5.33,4.69-10.88,6.28-16.58,1.25-4.49-5.74-6.42-6.97-1.93-1.41,5.11-3.27,10.08-5.55,14.85l6.62,2.79c1.59-5.65,3.93-11.06,6.96-16.09,1.52-2.51,3.22-4.92,5.09-7.19,1.19-1.42,3.42-4.49,5.61-4.09l-1.54-6.05c-12.64,11.43-27.21,20.53-43.03,26.87l2.79,6.62c8.54-4.03,16.84-8.57,24.85-13.57,3.89-2.29,7.52-5.01,10.8-8.11,2.9-3.08,15.55-16.97,11.68-19.84-3.29-2.39-25.36,5.68-28.71,7.17-3.76,1.68-1.02,5.8-4.55,7.9-15.65,9.22-28.95,21.95-38.85,37.17-.99,1.73-.4,3.93,1.31,4.95,6.43,3.87,11.58-5.18,15.18-9.1,4.72-5.05,9.72-9.84,14.98-14.33,10.29-8.95,21.19-17.15,31.37-26.22,5.92-5.16,11.47-10.73,16.6-16.67,1.37-1.47,1.29-3.77-.18-5.14-1.14-1.06-2.83-1.28-4.2-.55-15.61,8.47-31.16,17.04-45.3,27.84-13.37,10.11-25.43,21.85-35.88,34.95-1.35,1.44-1.35,3.68,0,5.12,1.42,1.4,3.7,1.4,5.12,0l.02-.06Z"/><path class="e" d="M110.41,128.19c2.22,4.97,4.56,9.88,7.02,14.75,1.09,2.18,2.22,4.33,3.38,6.45,1.03,2.34,2.42,4.51,4.12,6.43,3.73,3.53,3.58,17.65,7.56,15.64,3.98-2.01,24.12-15.42,27.27-18.66s-4.07-12.34-4.4-17.09c-.39-2.55-1.34-4.98-2.78-7.13-1.28-2.31-2.47-4.7-3.53-7.14-.94-2.14-1.76-4.35-2.51-6.57-.65-2.56-1.44-5.08-2.36-7.56-.77-2.09-2.66-3.56-4.87-3.79-2.62-.11-4.35,1.88-5.98,3.62-7.41,7.94-13.18,17.26-16.97,27.44-1.64,4.35,5.37,6.28,6.99,1.93,1.88-4.98,4.28-9.74,7.17-14.21,1.35-2.11,2.82-4.14,4.4-6.09,1.54-1.8,3.46-4.89,5.58-5.92l-1.82,.48c-1.25-1.02-1.54-1.19-1.14-.51,.11,.34,.2,.68,.29,1.02,.28,1,.54,2.01,.83,2.99,.51,1.7,1.08,3.38,1.7,5.04,1.28,3.48,2.76,6.89,4.44,10.2,.85,1.68,1.9,3.27,2.68,4.97,.72,.98,.63,2.34-.2,3.22-2.1,2.62-4.44,5.03-6.99,7.22-2.26,2.09-4.87,3.78-7.71,4.97-1.19,.45-2.27,1.16-3.08,.25-1-1.35-1.82-2.82-2.45-4.38-3.72-6.92-7.18-13.99-10.38-21.19-1.02-1.72-3.22-2.29-4.95-1.3-1.69,1.03-2.27,3.22-1.3,4.95v-.02Z"/><path class="e" d="M129.15,103.85c-4.77,4.2-10.18,8.14-14.36,12.93-2.3,2.35-3.9,5.29-4.63,8.5-.69,4.18,.46,7.43,2.14,11.18,2.48,5.54,4.63,13.03,9.96,16.52,6.62,4.23,14.18,.65,18.6-4.92,3.93-4.87,6.02-10.97,5.88-17.23-.25-6.56-3.08-14.21-10.1-16.07-8.34-2.22-13.5,5.89-14.98,12.88s-.23,14.22,5,19.23c5.9,5.81,15.27,6.17,21.59,.82,5.41-4.38,8.41-11.48,11-17.75,1.45-3.5-1.54-8.11-5.04-8.9-4.23-.97-7.36,1.3-8.92,5.06-.31,.72-1.34,2.88-1.97,4.09-.88,1.76-1.88,3.46-3.01,5.07,.56-.77-.51,.57-.71,.77s-.51,.51-.77,.74c-.89,.79,.74-.52-.23,.12-.72,.48,.11,0,.17,0s-1.1,.59-.39,.2-1.05,.11-.12,.09-.49-.12-.71-.19c-.8-.22,0,0,.14,0-.42-.2-.82-.45-1.19-.72,.85,.66-.4-.54-.57-.79,.11,.15,.48,.69,.12,0-.57-1.05,.28,1.03-.15-.25-.14-.39-.25-.79-.34-1.19,.15,.69,0-.28,0-.51-.08-1.58,.19-3.16,.8-4.63,.13-.42,.31-.82,.52-1.2,.12-.26,.23-.86,.22-.39,0,1.42-3.58,1.87-4.89,.99-.65-.43-.77-1.06-.37-.11-.46-1.08,.22,.83,.31,1.2,.22,.8,0,0,0-.17,.07,.48,.11,.96,.11,1.45v1.3c0,.12,0,1.54,0,.82,0-.4-.28,1.42-.4,1.87-.17,.69-.4,1.37-.66,2.04,.4-.97-.52,.86-.71,1.16s-.37,.62-.57,.91c.52-.8-.17,.22-.43,.48s-1.2,1.19-1.23,1.22c.42-.29-.96,.12-.45,.2s1.26-.23,1.74,0c.28,.15,.55,.31,.8,.49,.69,.29-.22,0-.22-.26,0,.49,.37,.63,0-.11-.2-.4-.43-.79-.63-1.17-.83-1.67-1.54-3.38-2.31-5.11l-1.37-3.08-.59-1.31c0-.14-.77-1.77-.48-1.03-.1-.38-.22-.75-.37-1.11-.45-.8,.23,0,0,.32s0-.15,.14-.4c-.57,1.08,.25-.31,.35-.48,.43-.68,0-.15,0,0,.39-.48,.82-.94,1.26-1.37,.62-.62,1.26-1.2,1.91-1.77,3.78-3.38,10.8-3.9,14.55-7.27,2.95-2.59-.48-10.4-3.08-13.03-2.86-2.74-7.38-2.74-10.24,0l-.12-.12Z"/><path class="e" d="M154.68,114.39c-1.9,.41-3.62,1.43-4.91,2.9-1.54,1.84-2.87,4.63-1.87,7.05,2.58,6.47,7.37,11.8,13.53,15.05,6.17,3.3,12.94,4.63,19.77,5.8v-13.88c-.54,.17-1.08,.32-1.64,.45l-.59,.12c-.42,0-2.73,0-2.3,0-3.73-.54-7.96,.91-8.9,5.06-.79,3.42,1.05,8.33,5.06,8.9,4.07,.71,8.25,.49,12.22-.65,3.13-.91,5.29-3.77,5.31-7.03-.14-2.96-2.13-6.43-5.31-6.97-4.84-.74-11.01-1.76-14.99-3.62-1.82-.78-3.51-1.82-5.03-3.08-.46-.42-.89-.85-1.31-1.3-.14-.14-1.1-1.34-.48-.51-.29-.4-.56-.82-.8-1.23,0,0-1-1.99-.56-.89l-1.87,7.05-1.54,.82c3.83-1.17,5.98-5.23,4.81-9.06-1.13-3.67-4.92-5.83-8.65-4.92l.03-.05Z"/><path class="e" d="M128.46,165.06l-.15,.26c-.51,.84-.51,1.9,0,2.75,2.61,3.66,6.91,.59,9.95-.8,4.44-2.02,8.87-4.03,13.27-6.17,4.4-2.14,8.3-3.08,12.54-5.46,4.24-2.38,8.71-6.37,12.99-8.67l-2.75-4.63c-2.26,1.53-4.86,2.47-7.57,2.73-2.93,.26-5.52-.76-8.39-.93-5.44-.32-9.09,4.03-11.91,8.07-1.54,2.28,1.54,5.07,3.72,3.72,5.92-3.59,11.32-7.97,16.04-13.03,1.04-1.1,.99-2.84-.12-3.88-.49-.46-1.14-.73-1.81-.75-5.99,.04-11.51,3.26-14.48,8.45-.94,1.54,.2,4.35,2.33,4.1,5.92-.63,17.09,1.11,20.58-3.73,.89-1.2-5.63-7.85-6.74-8.58-6.17-3.9-14.11-4.47-16.23,1.4-1.19,3.3,5.74,10.29,6.91,7.02,.97-2.67,3.58-5.61,6.57-3.72l-.97-3.72c-2.42,3.23-6.05,5.35-10.06,5.86l2.34,4.09c1.99-3.54,5.72-5.74,9.78-5.77l-1.93-4.63c-4.41,4.74-9.45,8.84-14.98,12.2l3.72,3.72c1.15-2.02,2.79-3.72,4.77-4.94,2.28-1.13,5.01,.19,7.4,.43,4.84,.45,9.69-.76,13.76-3.42,1.18-.93,1.37-2.64,.44-3.81-.76-.96-2.06-1.29-3.19-.81-7.23,3.86-14.07,8.44-21.44,12.12-3.55,1.76-7.13,3.44-10.72,5.11l-5.8,2.65-2.41,1.1-1.54,.72c-1.28,.32-1.06,.76,.65,1.31v2.73l.15-.26c1.73-3.08-2.96-5.8-4.63-2.75l-.09-.09Z"/><path class="e" d="M174.05,152.8l18.73-10.01c3.16-1.45-6.31-4.74-9.46-3.29l-32.18,10.47c-3.18,1.45,0,11.48,14.34,5.74l8.56-2.92Z"/><path class="e" d="M225.08,174.92c7.39,3.08,12.03,7.71,19.37,10.89,7.36,3.16,14.14,7.53,20.05,12.93,1.19,1.16,3.92-1.84,4.74-3.42,1.19-2.34,2.41-4.63,3.56-7.03,1.1-1.74,1.1-3.95,0-5.69-1.23-1.74-3.53-2.75-5.32-3.78-2.21-1.26-4.43-2.5-6.76-3.56-4.35-2.11-9.06-3.34-13.88-3.62-2.62,.1-5.25-.08-7.84-.52-1.22-.32-2.38-.85-3.44-1.54-.83-.52-2.36-1.26-2.82-2.11l.26,2.08c.22-1.33,2.45-3.27,3.27-4.29l3.86-4.83,7.42-9.25-4.27-3.29c-2.5,3.72-4.66,7.67-6.45,11.78-1.3,2.99-4.27,8.13-2.42,11.31,1.85,3.18,9.53,4.72,11.38,2.02,2.42-3.52,.69-10.8,1.64-14.93,.79-3.38-4.29-4.83-5.23-1.45-1.71,6-.84,12.44,2.41,17.77,.79,1.3,2.49,1.72,3.79,.93,.61-.37,1.05-.96,1.24-1.65,1.44-5.79,1.37-11.85-.2-17.6-.77-2.85-5.75-2.42-5.31,.71,.61,4.92,1.88,9.74,3.78,14.33,1.45,3.46,3.53,9.81,8.14,9.66,1.22-.01,2.28-.82,2.62-1.99,1.55-6.39,.17-13.15-3.76-18.42-.83-1.28-2.54-1.64-3.82-.81-.32,.21-.6,.48-.81,.81-2.47,3.62-.25,8.1,1.54,11.54,1.01,1.98,2.18,3.87,3.5,5.66,1.06,1.78,2.51,3.29,4.24,4.41,3.73,1.93,6.83-1.54,5.92-5.26-1.35-4.48-3.47-8.7-6.28-12.45-1.54-2.34-6.17-.97-4.97,2.08,1.46,3.82,3.16,7.55,5.07,11.17,1.34,2.51,3.44,6.97,7.11,5.86,3.67-1.11,2.9-6.17,2.21-8.96s-2.42-7.13-6.17-6.66c-7.2,.88-5.11,13.79-2.59,17.86,1.54,2.42,4.94,4.21,7.31,1.88,2.38-2.33,1.31-6.09-.09-8.44-1.87-3.08-5.04-5.15-8.1-6.94-3.05-1.79-6.82-3.92-6.54-7.71,.26-3.49-5.17-3.47-5.43,0-.35,4.63,2.93,8.21,6.54,10.8,1.84,1.3,3.86,2.25,5.68,3.55,.97,.66,1.84,1.44,2.61,2.33,.32,.39,.59,.83,.8,1.3,0,.19,.32,1.4,.37,1.45l1.62-.74-.26-.4c-.2-.67-.46-1.33-.77-1.96-.4-1.31-.6-2.67-.6-4.04,0-.7,.05-1.39,.15-2.08,.12-.69,.71-1.31-.23-1.26s-.08,1.05,.15,1.77c.18,.54,.32,1.09,.43,1.65,0,.76,.04,1.52,.14,2.27-.14,1.22,.54,.86,2.04-1.08l-.45-.77c-.58-1.37-1.29-2.69-2.13-3.92-1.37-2.69-2.6-5.46-3.69-8.28l-4.97,2.1c1.45,2.08,2.74,4.27,3.86,6.56,.58,1.18,1.1,2.39,1.54,3.62,.34,.93,0,1.17,1.11,.39,1.11-.79,.62-.72-.17-1.68-1.51-1.87-2.84-3.88-3.96-6-.86-1.54-3.08-5.01-1.9-6.79h-4.63c3.17,4.01,4.35,9.24,3.21,14.22l2.62-1.99c.39,.32,.32,.22-.17-.37l-.43-.71c-.42-.72-.8-1.45-1.17-2.21-.84-1.64-1.58-3.34-2.21-5.07-1.2-3.31-2.05-6.73-2.53-10.21l-5.34,.72c1.33,4.81,1.4,9.87,.2,14.72l5-.69c-2.51-4.06-3.19-8.99-1.87-13.57l-5.23-1.45c-.62,2.82-1.51,5.56-2.67,8.21-.55,.9-1.03,1.84-1.45,2.81,1.1,2.34,2.21-2.02,2.33-2.36,1.9-5.17,4.41-10.09,7.48-14.67,1.7-2.51-2.33-5.71-4.26-3.29-4.75,5.97-9.01,9.69-13.74,15.64-1.94,2.42-2.98,6.94-.31,9.05,2.39,2.12,5.24,3.67,8.31,4.53,3.36,.74,8.71,4.78,12.09,5.07,3.38,.29,5.51,2.82,8.61,4.3s5.11-2.93,7.87-1.23c1.99,1.17-3.92-2.24-5-.2l2.9,8.16,4.27-.54c-5.44-5.38-11.84-9.69-18.86-12.71-7.71-3.33-10.63-10.37-18.51-13.57-3.24-1.31-9.66,7.88-6.46,9.25l.08-.06Z"/><path class="e" d="M239.21,158.49c1.91-4.76,4.72-9.12,8.27-12.83,2.42-2.53-1.45-6.37-3.86-3.86-4.17,4.41-7.44,9.58-9.66,15.22-1.3,3.24,3.96,4.63,5.23,1.45l.02,.02Z"/><path class="e" d="M263.12,126.94l2.51-25.08c.43-1.17,.83-2.36,1.28-3.52,.09-.38,.23-.73,.43-1.06,.52-.85-.26-1.03-2.36-.57-.17,.81-.29,1.64-.35,2.47-.26,1.16-.56,2.3-.88,3.46-1.19,4.36-2.67,8.64-4.43,12.8-.73,1.32-.26,2.98,1.06,3.71,1.05,.58,2.35,.42,3.22-.41,4.72-4.2,8.41-9.43,10.8-15.29,1.34-3.22-3.9-4.63-5.24-1.45-2.12,4.95-5.33,9.36-9.41,12.88l4.26,3.3c2.45-5.68,4.41-11.56,5.86-17.57,.48-2.1,1.05-4.46-.11-6.46s-3.33-4.18-5.21-3.08c0,0-5.43,4-2.87,4.3-2.04,1.3-2.08,3.62-2.87,5.74l-1.33,7.25-6.73,18.51c-1.2,3.3,4.04,4.72,5.23,1.45l7.14-1.37Z"/><path class="e" d="M274.11,109.04l9.18-27.26h-5.26c1.4,5.76,.08,11.85-3.58,16.52-1.22,1.54-.34,10.16,1.54,10,4.98-.49,8.85-9.67,12.2-13.03,1.68-1.65,3.59-3.06,5.66-4.18,2.51-1.15,4.31-3.45,4.83-6.17,1.71-6.76-6.96-11.6-9.76-6.76-1.42,2.47-1.54,8.64-2.98,11.15-1.49,2.69-3.23,5.23-5.2,7.59l4.63,2.65c1.62-3.76,4.38-6.93,7.88-9.05,2.98-1.82,.25-6.52-2.73-4.63-4.7,2.9-8.34,7.22-10.4,12.34-1.05,2.5,2.87,4.63,4.55,2.64,2.65-3.11,4.94-6.51,6.83-10.13,.86-1.68,1.54-3.42,2.33-5.17,.22-.56,.76-1.88-.43-1.06-.09,.36-.29,.68-.57,.93-.38,.37-.81,.68-1.28,.93-2.74,1.59-5.28,3.5-7.56,5.69-1.93,1.97-4.16,4.8-7.16,5.07l2.31,4.04c4.41-6.02,7.31-14.39,5.49-21.59-.66-2.73-7.71-2.41-8.61,0l-7.17,28.01c-1.11,3.33,4.13,4.75,5.24,1.45v.03Z"/><path class="e" d="M270.29,184.91c17.35-8.34,32.28-20.97,43.39-36.7,3.79-5.31,7.11-11.34,12.63-15.12l-3.72-3.72c-6.36,12.47-15.29,23.44-26.22,32.18-2.73,2.19,1.13,6.02,3.86,3.84,11.3-9.04,20.54-20.38,27.12-33.27,1.16-2.24-1.31-5.37-3.72-3.72-5.34,3.66-8.96,8.87-12.56,14.14-3.62,5.37-7.7,10.41-12.19,15.09-9.02,9.31-19.62,16.94-31.3,22.57-3.08,1.54-.39,6.17,2.75,4.63l-.05,.08Z"/><path class="e" d="M273.36,182.64c-3.56,.29-5.38,8.11-1.54,8.92,1.54,.32,4.5-3.19,6-3.64,1.72-.53,3.4-1.14,5.06-1.84,6.83-2.93,20.81-13.88,26.22-18.94,12.06-10.94,14.25-18.63,21.59-33.01,1.43-5.74-4.41-5.43-6.51-2.7l-.91,1.19c-2.13,2.78,2.58,5.49,4.63,2.75l.91-1.2-4.63-2.73c-5.92,11.72-12.23,23.48-21.09,33.27-3.98,4.47-8.52,8.41-13.51,11.71-2.36,1.54-4.84,2.91-7.4,4.09-1.42,.65-2.87,1.22-4.35,1.71-.76,.25-3.24,1.45-4.01,1.16l1.9,1.9-.09-.31-.28,2.1,.15-.31-2.34,1.34h.28c3.46-.28,3.5-5.72,0-5.43l-.08-.02Z"/><path class="e" d="M275.66,184.05c7.13-.74,13.17-5.74,18.9-9.69,6.09-4.02,11.68-8.75,16.63-14.11,2.31-2.61-1.54-6.46-3.86-3.86-4.43,4.84-9.41,9.13-14.85,12.79-2.62,1.82-5.31,3.59-7.96,5.34s-5.57,3.73-8.87,4.09-3.49,5.78,0,5.43l.02,.02Z"/><path class="h" d="M127.89,172.43c-1.22-1.23-2.08-2.76-3.38-3.96-1.65-1.54-3.08-3.35-4.63-5.03-.11-.11-.29-.2-.32-.32-.28-1.28-1.37-1.77-2.22-2.59-1.69-1.28-3.29-2.66-4.8-4.15-1.39-1.68-2.85-3.18-4.3-4.75-.8-.94-1.65-1.83-2.56-2.67-1.09-.97-2.12-2-3.08-3.08-.93-1.13-1.85-2.27-2.68-3.49-2.19-3.08-4.29-6.28-6.31-9.61l-.79-1.28-.17-.26-.09-.15-.19-.31c-.25-.4-.46-.83-.62-1.28-.32-.89-.36-1.86-.11-2.78,.09-.22,.17-.45,.26-.65l.31-.6c.2-.37,.49-.88,.59-1.03,1.14-1.84,2.31-3.55,3.53-5.26,.28-.36,.59-.7,.93-1.02,.22-.23,.52-.43,.63-.68,.86-2.17,3.08-3.19,4.26-5.07,.87-.48,1.51-1.28,1.8-2.22,.43-.72,.95-1.38,1.54-1.97,.34-.3,.65-.63,.91-1,1.02-1.42,2.13-2.78,3.32-4.07,.93-.37,1.4-1.22,2.04-1.93,.68-.74,1.4-1.44,2.16-2.1,1.2-1.05,2.51-2.01,3.78-2.99,.51-.34,.99-.71,1.45-1.11,.66-.72,1.36-1.42,2.05-2.11s1.45-1.33,2.17-1.97c1.54-1.31,2.99-2.51,4.49-3.75,.71-.57,1.37-1.2,2.08-1.77l3.62-2.76c1.03-.78,2.03-1.62,2.98-2.5,2.27-2.18,4.64-4.24,7.13-6.17,.91-.76,1.87-1.54,2.82-2.17l1.45-1.03c.48-.34,1-.65,1.54-.97,.96-.63,1.87-1.33,2.73-2.1,.67-.63,1.46-1.11,2.33-1.4,.81-.23,1.5-.74,1.96-1.45,.57-.62,1.28-1.11,2.07-1.42,.99-.52,1.97-1.03,2.98-1.54l3.08-1.4c.21-.09,.42-.2,.6-.34,1.48-1.18,3.07-2.21,4.75-3.08,.83-.45,1.68-.86,2.53-1.28l2.55-1.19,1.4-.69,1.42-.66c.93-.46,1.85-.93,2.78-1.42,1.24-.61,2.55-1.06,3.9-1.36,.74-.17,1.13,.09,1.2,.79,.05,.48,.05,.97,0,1.45-.03,.22-.16,.42-.34,.54-.93,.45-1.65,1.25-2.85,1.26-1.44,.07-2.83,.57-3.98,1.45-1.06,.58-2.06,1.26-2.99,2.02-.34,.29-.75,.5-1.19,.59-2.36,.54-4.55,1.65-6.39,3.24-.45,.38-.98,.67-1.54,.85-1.05,.39-2.07,.91-3.08,1.39-.21,.09-.39,.24-.52,.42-.49,.86-1.34,1.46-2.31,1.64-.15,.03-.28,.1-.39,.22-1.18,1.04-2.5,1.91-3.92,2.59-1.54,1.02-2.84,2.22-4.23,3.38-.52,.42-1.13,.74-1.68,1.13l-3.18,2.21c-.8,.57-1.54,1.25-2.38,1.74-.56,.32-1.36,.26-1.84,.65s-.68,1.11-1.06,1.65c-.19,.24-.42,.43-.69,.57-1.44,.88-2.77,1.91-3.98,3.08-.63,.54-1.33,1.03-1.97,1.54-1.54,1.22-3.08,2.53-4.63,3.62-1.54,1.1-2.59,2.51-4.01,3.64s-2.59,2.31-3.86,3.53c-.66,.62-1.34,1.22-2.04,1.82-2.12,1.72-4.09,3.62-5.89,5.68-.28,.36-.6,.68-.96,.97-.61,.38-1.19,.8-1.74,1.26-.46,.49-.63,1.25-1.08,1.7-1.82,1.97-3.54,4.03-5.15,6.17-1.35,1.81-2.8,3.54-4.33,5.2-.48,.58-.9,1.2-1.25,1.87-.24,.47-.53,.91-.88,1.31-1.09,1.06-2.02,2.26-2.78,3.58-.2,.31-.4,.65-.63,.97l-.34,.45-.34,.34c-.66,.44-.84,1.34-.4,2.01h0c.21,.32,.45,.63,.69,.93l.77,.99c.37,.36,.69,.78,.94,1.23,.83,2.22,2.56,3.87,3.75,5.83,.42,.74,.96,1.4,1.43,2.13,.49,.71,.9,1.48,1.22,2.28,.29,.54,.63,1.06,1.02,1.54,.45,.69,1.17,1.19,1.31,2.08,.04,.22,.16,.41,.32,.56,2.21,1.8,4.09,3.98,6.45,5.6,2.04,1.53,3.92,3.25,5.61,5.15,.56,.57,1.33,.93,1.64,1.77,.11,.26,.57,.43,.85,.66,.76,.48,1.45,1.08,2.02,1.77,.79,1.13,1.71,2.16,2.73,3.08,.93,.9,1.79,1.87,2.58,2.9,.94,1.3,2.13,2.41,3.19,3.64,.26,.28,.5,.58,.71,.89,.37,.64,.23,1.44-.32,1.93-.28,.19-.58,.36-.89,.49-.77,.39-1.06,.32-1.68-.35s-.94-1.11-1.39-1.62Z"/><path class="h" d="M182.35,71.08c-.11,.26-.54,.23-.6,.54s-.45,.57-.66,.85c0,0,0,.11,0,.08-.57-.34-.34,.12-.4,.32s.15,1.11-.14,1.3c-.25,.23-.46,.51-.6,.82-.15,.16-.23,.37-.25,.59,.03,.53-.21,1.03-.63,1.34-.49,.35-.89,.8-1.2,1.31-.36,.55-.76,1.06-1.2,1.54h-.25c-.09,0-.17,0-.15,0,.14,.72-.8,.09-.88,.54-.42-.29-.37,0-.32,.31s-.15,.23-.25,.31-.2,0-.19,.11c0,.51-.42,.35-.49,.72-.35-.25-.34,0-.45,.12-.1,.12-.25,.2-.4,.23-.3,.02-.61,.02-.91,0h-.32c-.34,.51-.83,.91-1.4,1.14-.12,0-.22,.19-.34,.26s-.43,.19-.65,.31-.4,.14-.48,.34c-.24,.44-.59,.82-1.02,1.08-.29,.25-.64,.4-1.02,.45-.2,0-.31,.19-.39,.37s-.17,.25-.45,.08-.32,0-.23,.31-.14,.26-.28,.28c-.37,0-.79,.08-1.17,.11h-.08c-.11,.83-.69,1-1.14,1.37-.25,.21-.46,.48-.6,.77-.11,.23-.37,.23-.66,.19s-.42-.34-.77-.91-.49-.76-.69-1.13c-.07-.1-.13-.22-.15-.34,.09-.15,0-.62,.34-.35s.65,.19,.68-.19,.15-.42,0-.83c0-.14,0-.2,.15-.15,.63,.26,.88,0,.91-.62,0-.15,0-.22,.22-.19,.21,.05,.42,.05,.63,0v-.14c-.12-.43,0-.62,.28-.37h0c0-.51,.39-.29,.6-.42s.34-.49,.52-.71,.2-.08,.31-.11c.2-.05,.41-.11,.6-.19,.19,0,.23-.19,.43-.17s.52,.42,.62,.37-.09-.49-.12-.66,0-.09,.11-.08c.39,.09,.56-.12,.76-.28,.11-.07,.23-.13,.35-.15,.27-.18,.57-.29,.89-.32,.35,0,.31-.52,.57-.63s.4-.37,.6-.54c.12-.08,.24-.16,.37-.22,.37-.2,.91-.17,1.08-.66,.02-.08,.1-.13,.19-.11h0c.15,0,.42,.17,.48,.11s-.08-.45,0-.48c.46-.09,.54-.65,.88-.88s.32-.71,.79-.68c.15,0,.11-.23,.17-.35s0-.25,.14-.22,.48-.15,.6-.34,.15-.2,.35-.12c.48,.19,.45-.26,.48-.63v-.34c.48,0,.4-.63,.72-.79s.35-.42,.86-.2c.17,0,.17-.11,.26-.14s0-.31,.45,0c0,0,.14,0,.12,0,0-.76,.22-1.08,0-1.94-.15-.48-.05-.99,.25-1.39,0-.11-.09-.42,.22-.28s0-.17,0-.25-.15-.52,0-.48,.31-.25,.4-.42,.19-.32,.39-.37,.28-.34,.42-.51,0-.11,.14-.09c.46,.2,.88,.49,1.23,.85,.26,.22,.49,.45,.74,.68,.63,.57,.74,.72,.66,.83l-.02,.43Z"/><path class="h" d="M203.22,138.68c-.63,.48-1.54,.54-2.14,1.02-.86,.61-1.78,1.12-2.75,1.54,0,0-.11,.14-.17,.11-.76-.35-.99,.29-1.45,.62-.79,.57-1.31,1.54-2.24,1.97-.88,.4-1.74,.86-2.56,1.37-.5,.24-.97,.55-1.39,.93-.96,.93-2.09,1.65-3.33,2.13-1.6,.63-3.15,1.39-4.63,2.27-1.54,.96-3.27,1.8-4.92,2.68-.2,.07-.41,.12-.62,.14-.14,0-.32,0-.4,.09-.66,.99-1.99,.39-2.78,1.06-.59-.28-.85,.12-1.14,.54s-.66,.39-1,.54-.45,0-.57,.23c-.54,.71-1.43,.65-2.04,1.2-.52-.22-.83,.17-1.2,.34-.4,.2-.82,.36-1.25,.48-.72,.17-1.45,.26-2.17,.39-.28,0-.56,.06-.82,.17-1.51,.89-3.11,1.63-4.77,2.21-.39,.15-.74,.37-1.13,.51l-1.94,.72c-.54,.18-1.06,.42-1.54,.71-1.18,.78-2.43,1.46-3.73,2.02-.95,.48-1.95,.85-2.98,1.13-.5,.14-.96,.39-1.36,.72-.32,.29-.75,.42-1.17,.34-.41-.1-.83,.15-.94,.56h0c-.17,.37-.6,.43-.96,.54-.97,.28-1.94,.51-2.9,.77-.1,.02-.2,.06-.28,.12-1.26,1.12-2.68,2.03-4.23,2.7-.81,.43-1.58,.95-2.28,1.54-.5,.37-1.08,.6-1.7,.68-.34,0-.65-.22-.93-.85-.17-.41-.32-.83-.43-1.26-.06-.14-.06-.3,0-.43,.37-.28,.54-.91,1.19-.77,.7,.17,1.43-.13,1.82-.74,.35-.48,.85-.72,1.13-1.31,.1-.19,.31-.31,.52-.31,1.17-.02,2.26-.59,2.95-1.54,.18-.22,.44-.35,.72-.37,.53-.06,1.04-.19,1.54-.37,.11-.03,.2-.11,.23-.22,.19-.57,.52-.86,1.1-.71,.06,.04,.14,.04,.2,0,.45-.72,1.28-.62,1.93-.91s1.43-.83,2.13-1.31c.28-.13,.58-.23,.88-.29l1.68-.57c.4-.2,.83-.35,1.26-.45,.31,0,.77,.35,1.03,.23s.32-.62,.52-.89c.09-.11,.23-.17,.37-.17,.77-.1,1.51-.36,2.17-.76,.35-.15,.71-.28,1.08-.39,.83-.36,1.69-.65,2.56-.86,.83-.14,1.39-.88,2.17-1.16,.74-.3,1.45-.65,2.14-1.03,.37-.17,.77-.29,1.16-.45,1.21-.3,2.37-.77,3.46-1.39,.17-.12,.37-.2,.59-.23,.34,0,.74,.11,1.03,0s.4-.6,.68-.68c1.13-.42,2.22-.94,3.25-1.54,.87-.55,1.82-.97,2.81-1.26,.34,0,.59-.39,.86-.57s.39-.35,.63-.35c.69-.08,1.36-.33,1.93-.72,.29-.2,.63-.31,.99-.31,.89,.11,1.42-.51,1.97-1.08,.19-.17,.32-.48,.56-.48,1.11-.12,1.85-1.06,2.85-1.4,.7-.39,1.5-.58,2.3-.57,.29,0,.51-.2,.79-.28s.62-.48,1.13-.22c.09,.08,.22,.08,.31,0,.91-1.08,2.08-1.65,2.9-2.87,.75-.93,1.7-1.68,2.78-2.21,.31-.19,.48-.63,.97-.48,.15,0,.22-.26,.34-.39s.54-.79,.94-.8c.58-.12,1.12-.4,1.54-.82,.47-.32,.99-.57,1.54-.74,.63-.24,1.23-.57,1.77-.97,.13-.09,.28-.16,.43-.19,.55,.13,1,.51,1.23,1.02,.17,.28,.31,.59,.46,.88,.35,.77,.35,.97,0,1.22-.25,.07-.49,.14-.73,.23Z"/><path class="h" d="M297.45,83.83c.09-.82,.22-1.62,.26-2.44,.11-.78-.05-1.58-.45-2.27-.09-.11-.2-.21-.31-.31-.85-.74-1.96-1.11-3.08-1.03-1.12,.09-2.14,.65-2.82,1.54-.09,.12-.15,.31-.26,.37-.53,.31-.93,.8-1.14,1.37-.23,.56-.37,1.16-.6,1.73-.79,2.11-.89,4.3-1.54,6.46-.68,2.14-1.22,4.32-1.62,6.52-.28,1.25-.47,2.51-.59,3.78,0,.42,0,.83-.08,1.25l-3.3-.68c.33-2.59,.8-5.17,1.39-7.71,.4-1.94,.76-3.84,.96-5.74,.25-1.84,.28-3.69,.09-5.54l-.09-.69-.14-.66c-.04-.21-.1-.42-.17-.62l-.09-.31s.01-.08,0-.12h0l-.26-.22c-.26-.15-.54-.27-.83-.35-.4-.12-.81-.22-1.22-.28h-.57c-.41,.1-.81,.22-1.2,.35l-.26,.12h-.11l-.11,.12-.22,.2c-.15,.15-.29,.31-.45,.49-.22,.17-.4,.39-.52,.65-.4,.98-.91,1.91-1.54,2.76-.63,.89-1.12,1.88-1.45,2.93-.61,.77-.93,1.74-.88,2.73-.15,.85-.36,1.68-.63,2.5-.17,.43-.29,.88-.37,1.34,0,1.79-.77,3.52-.88,5.31-.39,.89-.6,1.85-.63,2.82-.14,.96-.31,2.05-.52,3.08-.35,1.64-.71,3.27-1.08,4.91-.16,.61-.28,1.24-.35,1.87-.14,2.51-.35,5.01-.63,7.53l-3.98-.83c.48-1.54,.97-3.08,1.45-4.63,.28-.93,.48-1.85,.71-2.78,.4-1.54,.79-3.08,1.06-4.63,.27-1.3,.43-2.62,.48-3.95,0-3.08,0-6.56-1.25-8.55-.13-.24-.32-.44-.54-.6h-.68c-.9,.02-1.77,.25-2.56,.68-.75,.5-1.3,1.25-1.54,2.11l-.37,1.11c-.16,.45-.35,.88-.59,1.3-.58,.74-.89,1.65-.89,2.59-.1,.88-.32,1.74-.68,2.55-.79,2.21-1.62,4.4-2.45,6.59-.09,.22-.16,.46-.2,.69-.74,3.92-1.8,7.78-3.18,11.52-.69,2.11-1.37,4.24-2.07,6.35-.48,1.42-1.13,2.78-1.93,4.04-.43,.69-.85,.82-1.28,.4-.3-.3-.57-.65-.79-1.02-.08-.2-.08-.42,0-.62,.21-1.09,.63-2.14,1.22-3.08,.93-1.2,1.54-2.63,1.77-4.13,.32-1.24,.57-2.49,.72-3.76,.05-.47,.18-.92,.4-1.34,1.21-2.3,1.98-4.8,2.28-7.37,.08-.64,.26-1.25,.52-1.84,.49-1.1,.89-2.27,1.31-3.39,.09-.23,.13-.47,.12-.71-.1-1.04,.16-2.08,.72-2.96,.09-.13,.14-.29,.15-.45,.27-1.67,.75-3.3,1.42-4.86,.14-.48,.25-.91,.4-1.45,.13-.53,.31-1.04,.52-1.54,.41-1.04,1.06-1.96,1.88-2.71,.65-.56,1.4-.97,2.22-1.22,.75-.24,1.53-.38,2.31-.4h1.28c.45,.1,.88,.28,1.26,.54,.54,.37,1,.85,1.34,1.4,.32,.47,.56,.99,.71,1.54,.04,.7,.04,1.41,0,2.11,.21,.74,.47,1.48,.77,2.19,.05,.32,.05,.64,0,.96-.2,1.82-.23,3.62-.42,5.44-.11,.9-.26,1.8-.46,2.68-.35,2.09-.87,4.16-1.54,6.17-.68,1.85-.85,3.78-1.54,5.61l-.09,.25-.76-.15c.22-1.76,.29-3.55,.48-5.31,.09-.97,.23-1.93,.35-2.9,.39-2.9,1.05-5.77,1.25-8.7,.03-.49,.12-.97,.26-1.43,.22-.74,.59-1.45,.72-2.19s0-1.45,.12-2.13c.74-2.76,1.11-5.6,2.04-8.31,.62-2.39,1.59-4.67,2.9-6.77,.48-.63,.76-1.45,1.2-2.14,.15-.25,.31-.51,.48-.76,.17-.25,.38-.48,.6-.68h0c.38-.3,.81-.51,1.28-.63l1.2-.37c.4-.11,.8-.2,1.23-.28,.24-.03,.47-.03,.71,0l.65,.09c1.87,.21,3.5,1.38,4.3,3.08,.15,.43,.31,.85,.48,1.28,.16,.43,.28,.87,.37,1.31,0,.29,.14,.57,.22,.86,.05,.28,.05,.57,0,.85-.12,1.31-.15,2.58-.22,3.86-.04,1.27-.18,2.53-.4,3.78-.27,1.85-.75,3.65-1.45,5.38-.21,.61-.38,1.24-.49,1.88-.09,.88-.36,1.74-.79,2.51-.14,.19-.21,.41-.22,.65,.02,.14,.02,.29,0,.43l-.59-.12c.08-2.9,.66-5.8,.82-8.73,.26-2.8,.91-5.55,1.94-8.16,.17-.9,.53-1.75,1.05-2.5,.22-.25,.23-.77,.39-1.17,.35-1.16,.98-2.23,1.84-3.08,.87-.76,1.87-1.36,2.96-1.74,1.11-.38,2.3-.47,3.46-.25,.77,.15,1.51,.43,2.19,.83,.34,.21,.67,.46,.97,.72l.45,.45,.48,.56c.22,.34,.4,.7,.54,1.08,.08,.19,.14,.39,.2,.59s0,.35,.08,.51c.12,1.09,.12,2.19,0,3.29-.07,1-.23,2-.48,2.98,0,.25-.14,.49-.22,.72-.09,.24-.19,.48-.31,.71-.14,.24-.3,.47-.48,.68-.18,.17-.39,.32-.6,.45-.49,.23-.8,.2-1,0-.18-.24-.34-.49-.49-.76-.17-.23-.29-.5-.34-.79,.01-.33,.09-.66,.23-.96,.28-.75,.5-1.53,.66-2.31Z"/><path class="h" d="M208.9,192.14c.25-.49,.85-.72,1.06-1.25,.35-.64,.76-1.24,1.23-1.79v-.12c.74,.12,.56-.48,.71-.82,.28-.63,0-1.54,.54-2.08,.42-.52,.78-1.09,1.08-1.7,.23-.32,.4-.69,.48-1.08,.16-.93,.57-1.79,1.19-2.5,.76-.89,1.41-1.86,1.94-2.9,.57-1.16,1.28-2.25,1.93-3.38,0-.12,.23-.19,.35-.26s.23,0,.23-.19c-.12-.94,1.16-.83,1.31-1.54,.56,0,.52-.32,.48-.74s.23-.48,.37-.68,.28-.15,.26-.32c0-.68,.62-.89,.71-1.54,.48,0,.48-.35,.63-.59,.15-.27,.35-.51,.59-.71,.41-.33,.83-.63,1.26-.91,.15-.12,.39-.19,.46-.37,.49-1.11,1.14-2.15,1.93-3.08,.17-.23,.29-.48,.45-.71s.62-.74,.89-1.13c.28-.3,.5-.64,.66-1.02,.33-.92,.76-1.8,1.3-2.62,.36-.65,.82-1.24,1.36-1.76,.26-.26,.43-.59,.49-.96,.03-.32,.28-.58,.6-.62,.35-.08,.45-.31,.29-.71s.15-.51,.34-.69c.48-.49,1.03-.97,1.54-1.45,.05-.05,.09-.11,.11-.19,.17-1.18,.64-2.29,1.36-3.24,.3-.58,.55-1.19,.72-1.82,.14-.43,.45-.79,.85-1,.22-.14,.59,0,1.14,.37s.72,.54,1.06,.82,.26,.26,.23,.31c-.11,.32,.15,.83-.42,.91-.5,.02-.89,.43-.88,.93,0,.04,0,.07,0,.11-.08,.43-.08,.87,0,1.3,.04,.16-.04,.32-.19,.39h0c-.8,.3-1.28,1.11-1.17,1.96,.03,.2-.08,.39-.26,.48-.32,.2-.6,.45-.85,.74-.05,.07-.05,.16,0,.23,.23,.49,.17,.79-.32,.85-.05,0-.09,.04-.1,.09,0,.01,0,.02,0,.04,.12,.65-.51,.85-.77,1.26-.26,.5-.48,1.01-.66,1.54-.11,.18-.25,.35-.42,.49-.28,.31-.56,.62-.82,.94-.16,.27-.36,.51-.59,.72-.19,.12-.76,0-.85,.15s.15,.56,.2,.83-.08,.17-.17,.23c-.45,.29-.81,.72-1.02,1.22-.15,.22-.31,.43-.49,.62-.35,.52-.77,1-1.23,1.42-.48,.37-.42,1.1-.8,1.54-.33,.45-.61,.92-.86,1.42-.16,.24-.34,.46-.52,.68-.54,.68-1.31,1.19-1.54,2.07-.04,.14-.13,.26-.26,.34-.22,.12-.59,.14-.72,.32s.09,.57,0,.71c-.66,.56-.83,1.54-1.36,2.13s-.56,1.36-1.23,1.76c-.2,.12-.19,.45-.28,.66s0,.39-.23,.45c-.52,.22-.71,.66-.97,1.08-.09,.24-.28,.42-.52,.49-.68,.14-.71,.77-.79,1.36,0,.17,0,.45-.11,.52-.71,.39-.71,1.31-1.23,1.84s-.6,.93-1.31,1.05c-.23,0-.26,.28-.42,.4s-.17,.54-.68,.46c-.11,0-.19,0-.19,.11-.23,.98-.4,1.98-.51,2.98-.01,.87-.29,1.71-.8,2.41-.12,.23,0,.62-.43,.63-.14,0,0,.26,0,.39s0,.76-.26,.86-.56,.65-.77,1.02c-.18,.38-.43,.71-.76,.97-.37,.35-.67,.76-.91,1.2,0,.09-.12,.22-.25,.26-.53,0-1.05-.22-1.42-.6l-.76-.66c-.63-.57-.74-.74-.57-.97s.17-.12,.31-.35Z"/><path class="e" d="M287.98,121.19c.25-.23,.65-.17,.88-.43,.3-.3,.65-.55,1.03-.74,0,0,0-.09,0,0,.43,.32,.42-.11,.57-.29s.29-1,.66-1.17c.35-.2,.68-.44,.97-.72,.2-.14,.36-.32,.48-.54,.22-.53,.63-.95,1.14-1.2,.62-.32,1.18-.73,1.68-1.22,.56-.56,1.17-1,1.77-1.54h.43c.09-.65,.86-.12,1.1-.54,.34,.23,.39,0,.43-.29s.23-.22,.37-.31,.2,0,.22-.11c.11-.45,.54-.34,.71-.68,.31,.19,.35,0,.48-.15,.15-.11,.32-.19,.49-.23,.32-.05,.64-.08,.96-.09h.35c.52-.5,1.14-.9,1.82-1.16,.15,0,.28-.19,.43-.26l.79-.35c.23-.06,.45-.18,.62-.35,.4-.44,.87-.8,1.39-1.08,.36-.25,.77-.42,1.2-.51,.22-.06,.41-.19,.52-.39,.11-.17,.32-.22,.49-.12h0c.25,.09,.34,0,.34-.31s.22-.25,.37-.28c.42-.09,.85-.15,1.28-.23,.03,.02,.07,.02,.11,0,.34-.77,1-.97,1.54-1.37,.32-.22,.61-.47,.86-.77,.19-.19,.47-.28,.74-.23,.17,0,.37,.23,.62,.71s.31,.62,.45,.93c.05,.09,.07,.19,.08,.29-.15,.14-.11,.54-.49,.35s-.65,0-.77,.25-.28,.4-.31,.77c0,.08-.06,.15-.14,.15h0c-.46-.15-.97,.09-1.13,.56v.12c-.03,.12-.15,.2-.28,.19-.23,0-.46,.02-.68,.09,0,0-.08,0-.08,.12,0,.39,0,.56-.4,.37h-.08c0,.46-.48,.31-.76,.45-.28,.21-.53,.45-.76,.71-.12,.06-.24,.1-.37,.12l-.69,.23c-.22,.09-.31,.2-.52,.2s-.45-.31-.56-.26,0,.42,0,.59-.09,.09-.15,0c-.33,0-.64,.12-.88,.34-.14,.07-.28,.14-.43,.19-.33,.18-.69,.31-1.06,.39-.37,0-.48,.48-.79,.62-.29,.16-.56,.34-.82,.56-.15,.09-.31,.17-.48,.23-.48,.22-1.03,.23-1.36,.69-.08,.09-.21,.1-.31,.03-.15,0-.39-.12-.48,0s0,.4-.19,.42c-.51,.12-.77,.63-1.2,.86s-.59,.68-1.06,.68c-.17,0-.2,.23-.29,.34s-.11,.22-.22,.2c-.37,0-.56,.17-.79,.35-.09,.12-.25,.18-.4,.14-.45-.14-.57,.25-.71,.6,0,.11,0,.29-.15,.29-.51,0-.66,.62-1.06,.77s-.52,.39-.97,.22c-.15,0-.2,.09-.32,.12s-.19,.29-.48,0h-.14c-.2,.68-.65,.97-.79,1.76-.12,.53-.44,.99-.88,1.3-.12,.11-.11,.4-.37,.26s0,.15-.09,.23-.11,.48-.31,.48-.45,.23-.63,.4c-.17,.18-.39,.3-.63,.35-.29,.1-.54,.27-.76,.49,0,0-.11,.09-.2,0s-.51-.4-.79-.88l-.35-.69c-.29-.59-.34-.74-.2-.83l.37-.15Z"/><path class="e" d="M311.33,100.85c-15.52,10.26-33.36,15.86-50.98,21.38-6.43,2.01-2.68,11.78,3.73,9.78,18.51-5.8,37.02-11.86,53.32-22.63,5.65-3.73-.48-12.25-6.08-8.53Z"/><path class="e" d="M297.76,85.87c-1.19,2.56-3.78,4.8-5.6,6.93l-6.65,7.71-13.33,15.59c-4.38,5.14,3.7,11.8,8.07,6.68l14.44-16.97c4.16-4.89,9.9-9.92,12.62-15.79,2.82-6.17-6.73-10.41-9.55-4.29v.14Z"/><path class="e" d="M293.27,88.2c-7.84,8.1-16.1,19.48-24.25,27.29-3.96,3.76-7.95,7.5-11.99,11.2-3.25,2.96-7,7.45-11.6,8.1-6.65,.94-5.58,11.37,1.13,10.41,4.9-.86,9.41-3.21,12.94-6.71,4.72-4.18,9.25-8.51,13.88-12.83,9.44-8.9,29.51-19.5,38.56-28.84,4.63-4.83-14.27-10.01-18.93-5.2l.25-3.41Z"/><path class="e" d="M242.12,144.48c15.66-13.77,30.03-28.98,45.69-42.73,2.51-2.21-.51-6.49-3.08-4.27-15.66,13.77-30.03,28.98-45.69,42.73-2.51,2.22,.51,6.49,3.08,4.27Z"/><path class="e" d="M243.82,142c-1.56,.92-2.33,2.76-1.9,4.52,.19,1.46,1.53,2.49,2.99,2.3,.19-.02,.37-.07,.54-.13,.99-.42-.46-.97,.35,.93,.23,.75,.56,1.47,.97,2.14,1.4,1.85,3.08,1.54,4.94,2.55l-1.54-2.1c.22,2.51-.22,3.66,2.19,5.15,.85,.38,1.84,.28,2.59-.26l.43-.26c2.11-1.33,.77-5.32-1.8-4.74-1.22,.25-2.38,.71-3.44,1.36l3.95,3.21-1.22-.15,.97,1.93,1.54,3.25c.46,1.08,1.56,1.75,2.73,1.67,2.5,0,2.67,3.84,4.53,5.17,1.45,1.05,1.14,0,2.75,1.76s.77,9.38,1.97,11.21c.71,1.1,19.06-1.94,20.05-2.87,11.32-10.13,13.36-19.7,24.4-30.14s16.2-23.91,26.48-35.01l-4.04-3.33c-.39,.43-.63-2.05-.72-2.36-.18-.84-.62-1.61-1.25-2.21-1.85-1.64-7.16-.91-5.35-5,.54-1.36-.13-2.9-1.5-3.44-.57-.22-1.19-.24-1.77-.06-4.29,1.3-3.49-1.54-5.8-3.89-.55-.57-1.23-.99-1.99-1.22-.44-.14-.89-.26-1.34-.35,.09,1.39,.22,1.7,.39,.94-.23-3.22-1.62-6.17-5.69-5.43s-6.71,6.62-9.41,9.25c-4.2,4.04-8.53,7.71-11.15,12.96-1.23,2.48,1.82,4.47,3.9,3.21,4.41-2.7,8.81-5.92,13.77-7.51,3.33-1.06,7.23-1.36,8.5-5.26,.86-2.48-.44-5.19-2.92-6.06l-.63-.17c-3.96-.88-6.39,2.34-7.96,5.48-.97,1.93,1.26,4.52,3.32,3.52,2.3-1.33,5.17-1.15,7.28,.45l2.75-4.41c-3.22-1.74-6.75-2.82-10.4-3.18-3.33-.34-4.16,4.83-.8,5.17,3.18,.3,6.26,1.25,9.05,2.79,2.59,1.39,5.12-2.67,2.75-4.41-3.56-2.81-8.43-3.32-12.49-1.3l3.27,3.49c.74-1.45,1.74-1.77,0-1.93-.74,.06-1.47,.23-2.16,.51-2.14,.59-4.21,1.42-6.17,2.47-3.52,1.85-6.85,4.03-10.23,6.08l3.9,3.21c2.39-4.83,6.62-8.1,10.41-11.77,1.86-1.68,3.51-3.57,4.92-5.63,.15-.25,1.65-1.93,.86-2.22-.4-.15,0,1.99,0,2.01,.33,1.21,1.26,2.17,2.47,2.55,1.11,.45,1.67,.19,2.56,1.2,.57,.63,.76,1.8,1.26,2.5,2.41,3.33,6.17,2.95,9.66,1.9l-3.42-3.53c-1.77,3.71-.44,8.15,3.08,10.27,1.06,.6,2.98,.74,3.19,1.1,.51,.82,.19,2.3,.8,3.29,.63,1,1.58,1.76,2.7,2.14,2.29,.88,4.88,.15,6.37-1.79,2.25-2.55-1.76-5.8-4.03-3.33-9.92,10.69-19.85,21.38-30.39,31.47-11.06,10.55-22.71,20.53-34.1,30.71l3.66,.6c-1.48-2.71-3.19-5.29-5.11-7.71-.52-.7-1.26-1.2-2.1-1.42-2.51-.52,.23,.97-.65-.28-1.11-1.54-1.34-3.08-3.08-4.26-1.45-.91-3.15-1.32-4.86-1.19l2.71,1.67c-1.23-2.53-2.64-7.71-5.49-8.84-2.85-1.13-4.63,1.23-5.52,3.52-.56,1.35,.08,2.89,1.43,3.45,.82,.34,1.76,.24,2.49-.25l.97-.4-1.8-4.74-.43,.26,2.59-.26c1.16,.71,1.25,.69,.86-.94-.11-.66-.44-1.27-.93-1.73-.58-.41-1.21-.75-1.87-1.02-1.54-.91-1.14-.99-1.54-2.21-1.33-3.55-3.69-4.43-7.4-2.9l3.53,2.16-.29,.31c2.7-2.02-.34-6.28-3.08-4.26l-.03,.11Z"/><path class="e" d="M249.37,144.93c5.98,9.86,10.89,20.44,21.59,25.94,.84,.4,1.84,.3,2.59-.25,7.28-5.26,12.88-12.34,19.65-18.19s13.6-11,19.53-17.58c2.79-3.08,5.44-6.31,8.25-9.38s6.69-5.69,9.47-8.88c1.77-2.07,1.37-4.21-.34-6.17-3.33-3.35-6.85-6.5-10.55-9.44l-2.75,4.41c1.41,.84,2.62,1.96,3.58,3.29,.25,.34,1.88,3.93,2.62,3.19-.12,.11-3.08,.2-3.22,.25-.85,.2-1.67,.51-2.44,.93-4.72,2.48-7.45,7.79-10.67,11.8-8.08,10.04-17.49,18.95-27.95,26.48-2.73,1.97,.32,6.17,3.08,4.26,12.64-9.19,23.79-20.27,33.06-32.85,.84-1.26,1.8-2.43,2.85-3.52,1.99-1.88,3.61-1.73,6.03-2.02,1.93,0,3.55-1.43,3.78-3.35,.72-5.4-4.53-10.63-8.62-13.17-2.59-1.54-4.84,2.53-2.75,4.4,2.71,2.42,6.77,4.89,8.84,7.84,1.84,0,1.9,.42,.2,1.25-.8,.65-1.54,1.33-2.34,2.04s-1.85,1.73-2.75,2.61c-5.34,5.31-9.89,11.37-15.19,16.72-5.31,5.35-11.83,9.86-17.49,15.09s-10.64,11.23-16.97,15.79l2.59-.26c-9.56-4.95-14.07-15.42-19.42-24.22-1.76-2.9-6,.17-4.27,3.08v-.08Z"/><path class="e" d="M317.27,107.09c-14.27,4.84-26.73,13.37-40.34,19.65-5.83,2.68-12.52,4.33-17.51,8.55-6.03,5.11-4.12,11.31-.66,17.41,2.82,4.98,8.24,12.54,14.7,12.2,3.32-.17,5.71-2.56,7.96-4.63,2.76-2.61,5.4-5.35,7.97-8.13,10.37-11.2,20.05-23.82,34.01-30.85,5.94-2.99,2.39-12.74-3.72-9.78-8.57,4.11-16.85,8.81-24.79,14.05-3.55,2.36-6.94,4.94-10.55,7.2-3.75,2.09-7.78,3.64-11.95,4.63-7.31,2.19-12.06,12.34-3.69,16.75,8.38,4.41,16.33-4.95,20.84-10.66,4.18-5.31-3.89-11.97-8.07-6.68-1.79,2.41-3.86,4.61-6.17,6.54-1.06,.83-4.97,2.56-.45,4.24,.69,.25,3.32-.83,3.99-1,4.98-1.49,9.67-3.81,13.88-6.85,9.77-6.89,20.02-13.08,30.68-18.51l-3.72-9.78c-10.64,5.37-19.31,13.19-27.41,21.87-4.43,4.77-8.68,9.72-13.17,14.44-2.04,2.16-4.32,5.38-6.94,6.77,1.33,0,1.54-.26,.68-.79-.54-.46-1.05-.94-1.54-1.45-.95-1.04-1.81-2.16-2.58-3.35-.79-1.17-1.48-2.41-2.05-3.7l-.52-1.3c-.39-1.7-.6-1.76-.63-.17,1.54-2.01,4.8-3.08,7.08-3.93,5.48-2.19,10.84-4.65,16.07-7.37,10.63-5.57,20.9-11.78,32.39-15.66,6.39-2.17,2.65-11.95-3.73-9.78l-.08,.05Z"/><path class="e" d="M251.18,142.34c.93,8.16,7,12.48,13.97,15.63,6.17,2.79,10.43-6.76,4.29-9.55-3.38-1.54-7.37-3.08-7.85-7.2-.74-6.68-11.15-5.58-10.41,1.13Z"/><path class="e" d="M275.07,167.94c9.38-12.23,19.91-23.54,31.45-33.76,5.01-4.43-1.03-12.97-6.08-8.53-12.26,10.79-23.46,22.73-33.46,35.65-4.1,5.34,3.96,12.02,8.08,6.68v-.03Z"/><path class="e" d="M301.08,129.66c-.29,1.16-3.25,3.08-4.1,3.66-1.37,1.21-2.98,2.11-4.74,2.64-6.62,1.22-5.54,11.65,1.11,10.41,7.28-1.36,16.24-7.71,18.08-15.1,.62-2.83-1.17-5.63-4-6.25-2.83-.62-5.63,1.17-6.25,4-.05,.23-.09,.47-.11,.71v-.06Z"/><path class="h" d="M308.25,102.8c.39-.12,.74,.15,1.11,.11,.5,0,.98,.14,1.4,.4h.09c0,.57,.34,.34,.59,.42s1.13,0,1.45,.26c.34,.3,.7,.58,1.08,.83,.21,.18,.44,.32,.69,.42,.67,.22,1.22,.69,1.54,1.31,.57,.94,.96,1.99,1.13,3.08,.09,.75-.02,1.51-.31,2.21-.3,.67-.73,1.27-1.26,1.77-.13,.09-.27,.15-.42,.19-.09,0-.23,0-.26,.11-.15,.32-.49,.51-.85,.48-.32-.03-.64,.03-.93,.17-.35-.28-.52,0-.76,.22s-.43,.14-.66,.19-.26-.09-.37,0c-.46,.37-.94,0-1.42,.19-.22-.35-.49-.22-.72-.26-.27-.03-.53-.12-.77-.25-.37-.24-.71-.53-1.02-.85-.12-.12-.2-.28-.35-.34-.99-.37-1.81-1.08-2.31-2.01-.14-.21-.27-.43-.39-.65-.17-.39-.29-.8-.37-1.22-.04-.34-.11-.68-.2-1.02-.25-.81-.25-1.68,0-2.5,.13-.65,.45-1.24,.91-1.71,.22-.24,.39-.51,.49-.82,.1-.26,.35-.44,.63-.43,.31,0,.43-.14,.49-.48s.34-.35,.59-.42c.6-.16,1.23-.2,1.85-.11,.06,.03,.13,.03,.19,0,.92-.47,2.01-.47,2.93,0,.53,.21,1.04,.45,1.54,.71,.35,.21,.61,.56,.71,.96,0,.23-.14,.46-.6,.72l-.89,.52c-.08,.06-.18,.09-.28,.11-.15-.11-.52,0-.43-.32s-.15-.65-.48-.57-.48,0-.76,.19-.15,0-.2,0c-.1-.33-.45-.51-.77-.41h-.01c-.13,.04-.25,.12-.32,.24-.09,.11-.17,.12-.28,0-.17-.12-.38-.18-.59-.17-.05,0-.08,.05-.08,.09,0,.39-.11,.49-.37,.29h0c0,.42-.4,.25-.6,.4-.19,.23-.32,.5-.37,.79,0,.09-.15,.14-.23,.22-.15,.15-.27,.32-.37,.51-.05,.16-.12,.32-.22,.46-.14,.14-.54,.12-.56,.25s.31,.26,.43,.37,0,.11,0,.15c-.18,.27-.21,.6-.09,.89v.45c0,.15,.22,.66,.25,1.06s.54,.45,.72,.71c.22,.23,.48,.42,.77,.56l.4,.29c.42,.28,.85,.72,1.42,.62,.09-.01,.18,.02,.25,.08,.11,.11,.22,.35,.35,.37s.29-.29,.4-.23c.52,.17,1.02-.17,1.54-.26s.71-.48,1.16-.48c.15,0,.2-.22,.26-.32s0-.22,.19-.22c.34,0,.48-.25,.57-.48s.08-.23,.26-.28c.45-.14,.25-.56,0-.8s-.25-.17-.2-.23c.23-.42-.31-.66-.4-1.02s-.32-.49-.19-.94c0-.15-.12-.2-.15-.31s-.31-.15-.14-.49v-.14c-.71-.09-1.13-.48-1.9-.39-.49,.05-.98-.06-1.4-.31-.12,0-.35,.11-.32-.17s-.14,0-.2,0-.4,.2-.43,0-.28-.15-.4-.14c-.09,.05-.19,.05-.28,0-.08-.08-.2,0-.26,0s0,0,0,0c-.17-.35-.31-.71-.43-1.08-.09-.25-.16-.5-.22-.76-.19-.63-.17-.79,0-.85,.14,0,.27,.02,.4,.06Z"/><path class="h" d="M302.08,124.75c-.19-.22,0-.56-.26-.74-.22-.27-.4-.56-.54-.88,0,0-.08,0,0,0,.37-.39,0-.35-.2-.49s-.91-.17-1.03-.48c-.16-.27-.37-.5-.62-.69-.12-.15-.29-.25-.48-.29-.44-.07-.84-.32-1.1-.69-.29-.43-.68-.79-1.14-1.05-.54-.29-.97-.63-1.54-.94v-.2c0-.06,0-.15,0-.14-.56,.17-.23-.66-.62-.69,.14-.37-.09-.31-.34-.25s-.23-.09-.32-.17,0-.17-.14-.14c-.4,.09-.4-.31-.72-.31,.11-.34-.12-.28-.23-.35-.12-.08-.22-.2-.29-.32-.12-.23-.2-.51-.31-.77s0-.23-.12-.26c-.55-.23-1.04-.6-1.42-1.06-.11-.09-.23-.15-.34-.26s-.31-.35-.48-.52-.26-.32-.46-.39c-.47-.18-.89-.45-1.25-.8-.31-.23-.55-.54-.71-.89-.09-.17-.26-.29-.45-.32-.15,0-.25-.15-.19-.42s0-.29-.34-.22-.25-.11-.31-.25-.25-.71-.37-1.06c.02-.03,.02-.07,0-.09-.76-.11-1.02-.66-1.42-1.11-.23-.24-.49-.46-.77-.63-.2-.15-.29-.39-.25-.63,0-.15,.22-.37,.66-.65l.88-.54c.09-.05,.18-.09,.28-.11,.14,.11,.52,0,.34,.34s0,.57,.25,.62,.37,.15,.71,.11,.17,0,.15,.12c-.12,.56,.15,.8,.68,.82,.12,0,.19,0,.19,.2,0,.19,.05,.38,.12,.56h.12c.34-.12,.49-.09,.37,.23h0c.42,0,.32,.32,.48,.48,.23,.16,.47,.29,.72,.4,0,0,.11,.19,.15,.26l.32,.49c.11,.14,.23,.19,.26,.35s-.19,.49-.12,.57,.35-.14,.52-.17c.04,0,.08,.02,.09,.06,0,.01,0,.02,0,.03,0,.32,.26,.45,.48,.6,.1,.09,.18,.19,.26,.29,.23,.21,.41,.45,.56,.72,.11,.31,.54,.2,.71,.42,.2,.17,.43,.32,.66,.45,.11,.09,.21,.19,.31,.29,.29,.29,.45,.76,.91,.85,.07,.01,.14,.07,.15,.14v.45c0,.08,.35-.11,.4,0,.22,.39,.71,.42,1.02,.69s.71,.25,.8,.66c0,.12,.23,0,.34,.12s.22,0,.23,.12,.23,.42,.45,.56,.2,.12,.17,.31c0,.43,.31,.4,.65,.45s.28,0,.29,0c0,.45,.63,.42,.8,.76s.4,.39,.28,.82c0,.15,.09,.17,.12,.26s.28,.12,0,.43v.11c.63,0,.93,.43,1.65,.49,.49,.05,.94,.31,1.22,.72,.08,.09,.37,.08,.22,.32s.15,0,.22,.09,.48,.09,.43,.28,.19,.42,.32,.6c.14,.17,.23,.38,.25,.6,0,.29,.23,.49,.34,.74s.08,.11,0,.19c-.27,.3-.63,.51-1.02,.62l-.72,.25c-.63,.22-.79,.23-.85,.11l-.08-.15Z"/><path class="h" d="M290.88,124.46c-.15-.11,0-.39-.19-.48s-.29-.35-.45-.54-.08,0,0,0c.35-.4,0-.26-.15-.31s-.82,.11-.91,0-.34-.26-.52-.37c-.11-.09-.26-.13-.4-.11-.33,.09-.69-.01-.93-.26-.26-.3-.59-.53-.97-.65-.42-.16-.82-.36-1.2-.6v-.15s0-.14,0-.11c-.51,.22-.11-.57-.45-.54,.19-.35,0-.26-.23-.19s-.19,0-.25-.12,0-.14-.09-.11c-.35,.12-.28-.23-.56-.2,.15-.31,0-.23-.12-.29-.09-.06-.16-.16-.19-.26-.05-.21-.08-.42-.09-.63v-.23c-.4-.14-.74-.41-.97-.77,0,0-.15-.12-.22-.2l-.28-.4c-.11-.12-.14-.25-.31-.28-.33-.08-.63-.25-.86-.49-.22-.15-.37-.38-.43-.63,0-.14-.15-.17-.31-.19s-.19-.08-.11-.31,0-.25-.25-.11-.19,0-.22-.14c-.08-.26-.15-.53-.2-.8h0c-.62,.09-.8-.29-1.11-.52-.19-.14-.4-.23-.63-.28-.17,0-.2-.2-.19-.42s.19-.37,.56-.74,.48-.49,.72-.72,.22-.19,.23-.17,.45-.17,.31,.17,0,.48,.2,.43c.21,0,.42-.04,.62-.11,.09,0,.14,0,.12,0-.12,.49,.11,.63,.56,.52,.11,0,.15,0,.14,.12-.02,.15-.02,.3,0,.45h.11c.31-.19,.43-.19,.31,.11h0c.35-.15,.25,.22,.35,.34s.39,.14,.57,.23,.08,.14,.11,.2,.12,.26,.2,.4,.17,.12,.17,.28-.25,.45-.2,.48,.32-.15,.48-.22,.08,0,0,0,.14,.35,.28,.48c.07,.06,.12,.14,.15,.23,.11,.19,.29,.29,.32,.57s.4,.12,.51,.29,.29,.22,.45,.32l.19,.23c.19,.23,.2,.62,.57,.65,0,0,.09,0,.09,.12s-.09,.32,0,.37,.32-.14,.34,0c.11,.32,.51,.28,.71,.49s.54,.11,.56,.45,.17,0,.26,0h.17s.14,.32,.29,.4c.08,.02,.14,.1,.12,.18h0c-.11,.38,.22,.3,.48,.24s.25-.09,.25,0c0,.37,.49,.22,.62,.45s.32,.2,.2,.6c0,.14,.08,.11,.09,.19s.23,0,0,.32c0,0,0,.11,0,.09,.56-.12,.79,.08,1.45,0,.39-.11,.8,0,1.1,.26,0,0,.35,0,.22,.23s.14,0,.2,0,.43,0,.4,.14,.17,.32,.31,.46c.14,.12,.23,.29,.25,.48,0,.25,.22,.39,.32,.6s0,.09,0,.15c-.28,.28-.62,.49-1,.6l-.74,.28c-.62,.23-.76,.26-.8,.19l-.12-.15Z"/><path class="h" d="M291.13,137.4c-.25-.17-.2-.56-.46-.72-.29-.23-.54-.5-.74-.82,0,0-.09,0,0,0,.29-.46-.12-.37-.31-.48s-.96-.09-1.14-.4c-.21-.28-.46-.52-.74-.72-.15-.15-.34-.26-.54-.32-.5-.09-.94-.39-1.22-.82-.34-.5-.77-.93-1.26-1.28-.56-.4-1.03-.86-1.54-1.3-.02-.08-.02-.17,0-.25,0-.08,0-.15,0-.14-.62,0-.17-.76-.59-.88,.2-.35,0-.34-.31-.32s-.23-.15-.32-.26,0-.19-.12-.19c-.43,0-.37-.42-.71-.48,.17-.32-.08-.32-.17-.43-.12-.11-.21-.25-.26-.4-.08-.28-.14-.56-.19-.85,0-.09,0-.25-.08-.31-.52-.36-.96-.82-1.28-1.37-.08-.12-.2-.2-.29-.32l-.4-.62c-.12-.17-.2-.39-.4-.48-.44-.25-.84-.58-1.17-.97-.28-.27-.49-.6-.62-.97-.08-.18-.23-.31-.42-.35-.15,0-.25-.17-.19-.43s0-.29-.32-.22-.25-.14-.29-.26c-.15-.35-.26-.72-.39-1.1l-.08-.08c-.32-.04-.63-.19-.86-.42-.11-.1-.22-.21-.31-.32l-.63-.48c-.18-.22-.34-.45-.48-.69-.12-.21-.22-.44-.31-.66,0-.15,.08-.14,.46,.31h.2l.4-.09h.22c.2-.06,.39-.15,.56-.28l.49-.28,.22-.14,.15-.09c.05-.04,.1-.08,.14-.14-.09-.11,0-.17-.32,0s-.57,.48-.29,.54c.21,.08,.44,.08,.65,0,.09,0,.15,0,.14,.12,0,.59,.26,.83,.8,.86,.1,0,.19,.07,.2,.17,0,.01,0,.02,0,.03,.02,.21,.08,.41,.17,.6h.14c.35-.12,.52-.08,.4,.25h0c.43,0,.35,.37,.52,.57,.23,.2,.48,.37,.76,.51,.09,0,.11,.2,.15,.31l.31,.57c.09,.14,.23,.23,.26,.42s-.25,.48-.19,.56,.39,0,.56-.08,.09,0,.09,.11c.03,.29,.18,.55,.42,.72,.09,.11,.16,.23,.22,.35,.22,.25,.38,.54,.49,.85,0,.34,.51,.32,.66,.59,.17,.21,.36,.4,.57,.57,.09,.12,.17,.25,.25,.37,.26,.37,.34,.88,.8,1.08,.07,.03,.12,.1,.12,.19,0,.14-.09,.37,0,.48s.39,0,.42,0c.15,.43,.66,.57,.93,.91s.69,.39,.72,.83c0,.14,.23,.12,.35,.19s.2,0,.2,.17,.22,.48,.4,.63c.12,.07,.18,.2,.15,.34-.09,.43,.28,.49,.62,.54s.31,0,.31,0c0,.46,.62,.48,.8,.83s.4,.4,.28,.85c0,.14,.11,.17,.14,.26s.28,.12,.08,.43,0,.12,0,.14c.66,0,.97,.4,1.73,.4,.49,0,.95,.22,1.28,.57,.11,.09,.39,0,.26,.31s.15,0,.23,0,.48,0,.48,.19,.25,.39,.42,.54c.18,.12,.31,.3,.37,.51,0,.28,.32,.42,.48,.62,.06,.04,.09,.1,.09,.17-.19,.36-.47,.65-.82,.86l-.63,.43c-.56,.37-.69,.42-.8,.31l-.06,.06Z"/><path class="h" d="M277.69,138.03c-.19,0-.09-.39-.31-.48-.21-.12-.4-.29-.56-.48h0c.31-.42,0-.26-.22-.29s-.82,.12-.96,0c-.15-.17-.34-.31-.56-.4-.11-.1-.26-.16-.42-.15-.37,.06-.75-.09-.97-.39-.24-.32-.55-.59-.91-.77-.4-.21-.78-.45-1.14-.72v-.17c0-.06,0-.14,0-.12-.52,.17,0-.56-.37-.59,.22-.32,0-.25-.23-.2s-.17-.08-.23-.14,0-.15-.08-.12c-.37,0-.25-.26-.52-.26,.19-.29,0-.25-.09-.31-.08-.08-.14-.17-.17-.28v-.88c-.38-.19-.68-.5-.85-.88,0-.09-.14-.14-.2-.22l-.23-.43c-.09-.14-.11-.28-.26-.32-.32-.11-.61-.32-.82-.59-.2-.18-.32-.43-.35-.69,0-.14-.14-.19-.29-.23s-.19-.09,0-.31,0-.25-.23-.14-.2,0-.22-.15c-.05-.28-.09-.55-.11-.83h0c-.63,0-.77-.37-1.05-.65-.17-.16-.38-.28-.6-.34-.17,0-.17-.23-.15-.45s.23-.35,.63-.68l.8-.65,.25-.15c.12,0,.46-.11,.28,.2s-.11,.49,.17,.49c.2,.03,.41,.03,.62,0,.09,0,.14,0,.11,0-.17,.48,0,.65,.48,.59,.11,0,.15,0,.14,.14-.04,.15-.04,.3,0,.45h.11c.11,0,.45-.14,.28,.15h0c.37-.11,.23,.25,.32,.39s.37,.19,.54,.29,0,.14,.09,.22,.09,.28,.15,.42,.15,.14,.14,.29-.29,.43-.25,.48,.32-.12,.48-.17,0,0,0,.09,.11,.37,.23,.51c.06,.07,.1,.16,.12,.25,.09,.19,.26,.32,.26,.6s.39,.17,.48,.35c.12,.14,.26,.27,.42,.37,.06,.08,.11,.16,.15,.25,.15,.25,.14,.65,.49,.72,0,0,.08,0,.08,.11h0c0,.11-.14,.31-.09,.37s.32-.09,.35,0c0,.31,.48,.32,.63,.56s.54,.17,.49,.51,.17,0,.26,.09,.17,0,.15,.09,.11,.32,.25,.42c.09,.03,.14,.12,.11,.21h0c-.15,.37,.17,.31,.45,.3s.26,0,.26,0c0,.35,.48,.25,.57,.48s.29,.23,.12,.62v.19c0,.08,.23,0,0,.32s0,.09,0,.09c.56-.09,.79,.12,1.45,0,.35-.11,.74-.04,1.03,.19,.08,0,.32,0,.19,.17s.14,0,.2,0,.4-.09,.37,0,.17,.25,.29,.32c.14,.05,.25,.17,.26,.32,0,.19,.23,.25,.35,.35s0,0,0,.12c-.21,.33-.49,.62-.8,.85l-.6,.48c-.52,.42-.65,.49-.72,.43l-.06-.2Z"/><path class="h" d="M306.3,131.12l2.1,1.88c.67,.58,1.64,.67,2.41,.23,.27-.11,.5-.29,.66-.52,.35-.43,.52-.99,.48-1.54l-.12-.54c-.14-.35-.36-.67-.65-.91l-2.1-1.88c-.94-.75-2.31-.62-3.08,.29-.35,.43-.52,.99-.48,1.54l.12,.54c.14,.35,.37,.67,.66,.91Z"/><path class="h" d="M294.37,142.11l1.4,1.94c.37,.45,.88,.76,1.45,.88,.27,.07,.56,.07,.83,0,.28-.04,.54-.16,.76-.34l.42-.39c.26-.3,.43-.66,.49-1.05v-.57c-.05-.37-.19-.73-.4-1.03l-1.4-1.93c-.37-.46-.88-.77-1.45-.89-.28-.07-.57-.07-.85,0-.28,.04-.54,.15-.76,.32l-.42,.39c-.25,.3-.42,.66-.48,1.05v.57c.04,.37,.17,.73,.39,1.03l.02,.02Z"/><path class="h" d="M285.93,149.67l1.74,1.84c.94,.75,2.3,.62,3.08-.29l.31-.48c.16-.35,.21-.74,.17-1.13l-.12-.54c-.14-.35-.36-.67-.65-.91l-1.76-1.84c-.47-.34-1.04-.51-1.62-.48-.28,.01-.55,.1-.79,.26-.26,.11-.49,.29-.66,.51l-.31,.49c-.15,.35-.22,.74-.19,1.13l.14,.54c.13,.36,.35,.67,.65,.91v-.02Z"/><path class="h" d="M301.23,80.73c.28-.22,.57-.42,.86-.62l.43-.29c.18-.13,.38-.23,.6-.29,.31-.05,.62,.08,.8,.34,.05,.05,.08,.12,.11,.19v.32l.34,.86c.12,.29,.23,.6,.35,.88,.15,.29,.49,.42,.79,.29,.56-.26,1.13-.56,1.68-.85h0c.24-.07,.5-.07,.74,0,.29,.08,.56,.21,.8,.39,.16,.1,.29,.25,.37,.42,0,.07,0,.13,0,.2v2.36c-.02,.23,.11,.45,.32,.54,.22,.11,.45,0,.66,0l.65-.2c.23-.08,.47-.14,.71-.19,.31-.06,.61-.09,.93-.11,.76-.08,1.51,.19,2.04,.74,.48,.48,.88,1.03,1.19,1.64,.14,.25,.23,.51,.29,.79,.03,.34,.03,.69,0,1.03-.03,.33-.08,.65-.14,.97v.23c-.03,.06,0,.14,.06,.16h.02c.16,0,.32-.04,.48-.09,.32-.06,.65-.09,.97-.09,.13-.02,.26-.02,.39,0l.46,.09c.31,.08,.6,.2,.86,.37,1.26,.78,2.2,1.99,2.62,3.41,.07,.17,.12,.34,.15,.51,0,.12,0,.23,.11,.34,.05,.22,.11,.43,.19,.63,.13,.18,.33,.3,.56,.31,.22,.02,.43,.02,.65,0h1.22c.52,0,1.03,.06,1.54,.15l.49,.14,.57,.2c1.18,.48,1.94,1.63,1.93,2.9v2.61c-.02,.16-.02,.32,0,.48,.05,.32,.27,.59,.57,.71,.2,.03,.4,.03,.6,0h.29c.24-.03,.48-.03,.72,0,.77,.03,1.51,.33,2.1,.83,.54,.46,.97,1.04,1.25,1.7,.44,1.12,.71,2.3,.79,3.5v.11h-.45v-.09l-.14-.45h.12c.15,0,.32-.12,.48-.19,.45-.14,.91-.23,1.37-.26,.92-.07,1.85,.14,2.65,.6,.78,.46,1.37,1.18,1.68,2.04,.33,.99,.21,2.08-.32,2.98-.29,.48-.63,.92-1.02,1.33l-.72,.8-2.68,2.9-13.16,13.88c-4.83,5.14-9.79,10.13-14.84,15.05-.56,.54-1.17,1.03-1.76,1.54-.42,.31-.82,.65-1.19,1.02-2.41,2.96-5.71,4.83-8.33,7.53-1.37,.88-2.59,1.99-3.59,3.27-.96,1.04-1.99,2-3.08,2.9-.6,.48-1.19,.99-1.76,1.54-1.97,2.19-4.47,3.92-6.57,5.97-1.32,.86-2.56,1.85-3.7,2.95-1.3,1.1-2.61,2.17-3.93,3.21l-.43,.32c-.2,.15-.41,.29-.63,.42-.25,.15-.51,.28-.77,.4-.3,.12-.6,.22-.91,.29-1.21,.31-2.5,.05-3.5-.71-.48-.38-.88-.85-1.17-1.39-.08-.12-.14-.24-.2-.37l-.14-.28-.22-.48-.83-1.85c-.38-.95-.81-1.87-1.28-2.78-.14-.26-.3-.51-.48-.74-.07-.09-.17-.16-.28-.2h-1.11c-.45-.02-.89-.1-1.31-.25-.64-.25-1.18-.7-1.54-1.28-.35-.57-.52-1.23-.48-1.9,.01-.31,.05-.62,.11-.93,.05-.13,.05-.27,0-.4-.07-.12-.2-.2-.34-.22h-1.59c-.19,0-.39-.03-.57-.09-.5-.07-.98-.2-1.45-.39-.44-.19-.85-.46-1.19-.8-.71-.73-1.07-1.73-.97-2.75v-.68c.02-.07,.02-.13,0-.2,.05-.35-.11-.69-.4-.88-.2-.25-.49-.41-.8-.48-.22-.08-.46-.08-.68,0l-.56,.22h-.25c-.26,.02-.51,.02-.77,0-.4-.09-.77-.28-1.08-.54-.21-.21-.38-.46-.49-.74-.06-.12-.11-.24-.14-.37-.03-.12-.06-.24-.08-.35v-.91c.02-.21,.05-.41,.09-.62,.02-.09,.02-.19,0-.28,0-.09-.14-.14-.22-.19l-.59-.37c-.34-.2-.66-.41-.97-.65-.18-.14-.35-.29-.51-.46-.2-.19-.37-.39-.52-.62-.31-.43-.52-.93-.63-1.45h0c-.02-.29-.02-.58,0-.86v-.28l.08-.34c.11-.21,.11-.46,0-.66h-.09l-.11,.11c-.09,.06-.18,.11-.28,.14h-.25c-.11,.02-.23,.02-.34,0h-.25c-.17-.03-.33-.08-.49-.14-.34-.12-.66-.29-.96-.51-.59-.45-1.04-1.06-1.3-1.76-.11-.32-.18-.65-.22-.99-.02-.16-.02-.33,0-.49v-.29c0-.1,.03-.2,.09-.28l.08-.09h-.22l-.28-.08-2.08-.68-.54-.19-.46-.17-.91-.34-.91-.34h-.34v-.09l.28-.42c.72-1.1,1.54-2.17,2.24-3.24,.2-.28,.4-.54,.62-.8l.54-.65c.26-.32,.52-.62,.8-.91,2.83-2.98,5.93-5.69,9.25-8.1,1.5-1.19,2.92-2.49,4.23-3.89,1.06-1.14,2.23-2.17,3.49-3.08,1.14-.78,2.13-1.74,2.95-2.85,.94-1.06,1.97-2.03,3.08-2.9l8.56-7.28c.29-.25,.57-.51,.85-.79,4.3-4.63,9.09-8.84,13.73-13.19,2.58-2.41,5.12-4.83,7.6-7.33,1.67-1.64,3.43-3.19,5.28-4.63,.99-.8,1.54-.89,1.65-.29,.08,.46,.08,.94,0,1.4-.08,.3-.23,.58-.45,.8-1.15,1.36-2.44,2.6-3.86,3.69-2.03,1.36-3.88,2.98-5.48,4.83-1.37,1.54-2.9,2.93-4.15,4.5-.48,.58-1.03,1.1-1.64,1.54-3.31,2.48-6.36,5.3-9.1,8.39-.69,.77-1.44,1.47-2.25,2.1-1.54,1.17-2.98,2.48-4.46,3.75-.29,.25-.56,.53-.79,.83-.93,1.36-2.13,2.51-3.52,3.39-.21,.15-.4,.33-.57,.52-1.86,1.96-3.85,3.8-5.95,5.49-1.16,1.05-2.27,2.13-3.39,3.24s-2.3,2.14-3.49,3.18c-.88,.74-1.84,1.42-2.75,2.13-1.73,1.36-3.44,2.73-5.04,4.21-.62,.56-1.2,1.16-1.77,1.77-.28,.31-.57,.6-.83,.91l-.35,.4-.31,.32c-.28,.29-.66,.57-1.06,.96s-.4,.39-.6,.6l-.14,.15h0l.31,.12c.5,.16,1.02,.26,1.54,.31h.63c.32,.03,.63,.09,.94,.17,.26,.06,.52,.14,.77,.23,.25,.2,.48,.43,.71,.63l.15,.15h.09c-.1,.09-.18,.19-.25,.31-.2,.38-.31,.79-.32,1.22,.02,.18,.02,.36,0,.54-.02,.15-.02,.3,0,.45,.08,.29,.24,.54,.48,.72,.25,.17,.52,.29,.8,.37,.38,0,.76-.04,1.13-.12,.31-.07,.61-.19,.88-.35,.11-.07,.22-.15,.31-.25l.11-.14h.11c.06,.06,.12,.13,.17,.2,.34,.63,.44,1.37,.26,2.07-.17,.68-.25,1.38-.25,2.08,0,.11,.04,.21,.08,.31,.19,.45,.51,.83,.93,1.08,.5,.33,1.01,.63,1.54,.89,.4,.18,.72,.5,.89,.91,.09,.43,.09,.88,0,1.31-.07,.36-.11,.73-.11,1.1,0,.1,.05,.19,.12,.25h.22c.7-.34,1.51-.39,2.25-.14,.96,.31,1.76,.97,2.25,1.85,.22,.45,.34,.95,.32,1.45-.06,.41-.06,.82,0,1.23,.19,.51,.63,.89,1.17,.99,.25,.06,.51,.11,.77,.14l.91,.09c.82,.01,1.63,.17,2.39,.48,.77,.41,1.18,1.28,1,2.13-.12,.89-.35,1.54,0,1.99s1,.43,1.76,.48c.43,.02,.85,.11,1.25,.26,.61,.31,1.11,.8,1.42,1.4,.29,.56,.54,1.06,.82,1.54l1.62,3.08c.23,.53,.49,1.05,.79,1.54,.26,.46,.72,.78,1.25,.86,.54,.05,1.07-.07,1.54-.34,.49-.31,.95-.66,1.37-1.05,.89-.76,1.77-1.54,2.65-2.31,.57-.55,1.17-1.06,1.8-1.54,.99-.72,2.05-1.34,2.98-2.11s1.54-1.73,2.39-2.42c3.59-2.85,6.8-6.09,10.21-9.1,2.88-2.59,5.54-5.4,8.55-7.87,.96-.86,1.87-1.76,2.73-2.71,.61-.67,1.26-1.31,1.94-1.91,1.99-1.66,3.89-3.43,5.68-5.31,.89-.94,1.84-1.83,2.84-2.65,2.18-1.8,4.15-3.83,5.88-6.06,.54-.71,1.12-1.38,1.74-2.02,3.08-2.7,5.46-5.88,8.25-8.68,2.05-2.1,4.03-4.35,6.28-6.25,.19-.16,.37-.33,.54-.51l.48-.52c.3-.31,.55-.66,.74-1.05,.11-.29,.11-.62,0-.91-.15-.4-.42-.74-.79-.97-.35-.22-.72-.39-1.11-.51-.32-.11-.67-.11-.99,0l-.62,.25c-.28,.11-.6,.11-.88,0-.3-.08-.57-.28-.74-.54-.09-.14-.16-.29-.2-.45v-.42c-.05-.86-.24-1.71-.57-2.51-.22-.69-.76-1.23-1.45-1.45-.16-.02-.33-.02-.49,0h-.68c-.61,.16-1.24,.16-1.85,0-.73-.29-1.3-.9-1.54-1.65-.12-.39-.2-.78-.25-1.19v-1.08c-.02-.52-.06-1.03-.14-1.54-.03-.37-.32-.66-.69-.69h-2.11c-.31,0-.62,.03-.93,.08-.68,.08-1.36-.05-1.97-.35-.6-.33-1.06-.89-1.26-1.54l-.25-1.02c0-.19,0-.37-.09-.56v-.29c-.07-.3-.17-.58-.29-.86-.19-.37-.45-.71-.77-.97-.28-.23-.51-.37-.8-.59h-.2c-.21-.04-.42-.04-.63,0h-1.14l-.49-.09c-.12-.03-.23-.08-.34-.14-.23-.08-.44-.22-.6-.4-.14-.18-.27-.38-.37-.59-.07-.13-.13-.27-.17-.42-.05-.17-.08-.35-.08-.52-.09-.35,.09-.83,0-1.19v-.4s0-.08,0-.12c-.03-.08-.07-.16-.11-.23l-.22-.48c-.04-.09-.09-.17-.15-.25,0,0-.17-.22-.11-.15m-.08-.08h0l-.43,.11-1.64,.48c-.64,.17-1.31,.14-1.93-.09-.32-.12-.61-.29-.86-.51-.12-.11-.23-.23-.34-.35l-.14-.17c0-.08,0-.16,0-.25-.15-1.19-.32-2.38-.48-3.56v-.56h0l2.24-.15h-.14l-.15,.09c-.48,.41-.89,.89-1.22,1.43h0c.25-.66,.35-1.37,.28-2.07l1.03,1.91-3.58,1.17c-.56-.06-1.09-.27-1.54-.62-.11,0-.15-.22-.22-.34l-.2-.37-.4-.74-.8-1.54-.2-.37v-.09h0l1.73-.72h0l.97,1.54h0l-.19,.12-.37,.25c-.25,.19-.48,.37-.76,.56s-.99,.79-1.45,1.2-.89,.8-1.33,1.16c-.97,.74-1.67,.94-2.11,.6-.2-.19-.36-.42-.48-.68-.31-.66-.15-1.13,.97-2.24,.76-.56,1.54-1.08,2.34-1.56l11.38,6.35Z"/><path class="h" d="M273.51,189.65c1.02-.57,2.22-.72,3.24-1.34,1.31-.8,2.75-1.37,4.13-2.07,.09,0,.17-.17,.26-.15,.96,.25,1.45-.52,2.08-.96,1.08-.98,2.22-1.88,3.42-2.7,1.25-.67,2.46-1.42,3.62-2.24,.7-.42,1.35-.9,1.94-1.45,1.36-1.36,2.89-2.55,4.53-3.55,2.11-1.31,4.13-2.77,6.03-4.37,2.1-1.79,4.27-3.44,6.17-5.21,.24-.19,.49-.35,.76-.49,.17-.09,.42-.14,.48-.31,.62-1.39,2.34-1.54,3.08-2.73,.76-.09,.96-.69,1.13-1.33,.22-.47,.52-.9,.88-1.26,.17-.23,.49-.37,.52-.65,.26-1.11,1.2-1.79,1.54-2.87,.65-.26,.76-.89,1.03-1.45,.28-.57,.6-1.12,.96-1.65,.6-.85,1.25-1.68,1.87-2.55,.28-.3,.51-.64,.68-1,.9-2.47,2.02-4.86,3.33-7.14,.32-.54,.57-1.13,.91-1.67s.56-.91,.86-1.36l.85-1.3c.5-.65,.9-1.37,1.2-2.13,.3-.83,.54-1.67,.74-2.53,.15-.63,.15-1.29,0-1.93-.11-.36-.28-.69-.52-.97-.2-.27-.47-.48-.77-.62-.46-.15-.96-.11-1.39,.11-.41,.23-.89,.31-1.36,.23-.23-.05-.47,0-.66,.12-.22,.14-.39,.34-.48,.59-.1,.2-.25,.37-.45,.48l-.62,.35c-.26,.14-.48,.32-.76,.48l-.89,.68-1.76,1.33c-.13,.08-.24,.19-.32,.32-1.4,2.01-2.95,3.92-4.63,5.71-.83,1-1.52,2.1-2.07,3.29-.17,.37-.38,.72-.62,1.05-.1,.16-.21,.3-.32,.45l-.19,.23-.15,.2c-.25,.31-.68,.34-1.28,0-.4-.2-.78-.46-1.13-.76-.15-.11-.23-.29-.22-.48,.22-.71,.14-1.54,.93-2.02,.45-.23,.84-.56,1.14-.96,.3-.4,.53-.84,.71-1.31,.4-.75,.74-1.52,1.03-2.31,.09-.3,.29-.56,.57-.71,1.45-.86,2.63-2.11,3.38-3.62,.19-.37,.48-.68,.85-.88,.65-.42,1.28-.88,1.87-1.39,.13-.1,.22-.23,.26-.39,.05-.34,.19-.67,.4-.94,.24-.29,.58-.48,.96-.54,.12-.03,.22-.1,.28-.2,.65-1.1,1.93-1.34,2.99-1.76,1.3-.62,2.72-.95,4.16-.97,.61,.09,1.19,.31,1.71,.65,.97,.55,1.74,1.39,2.21,2.41,.4,.7,.59,1.51,.56,2.31-.04,.27-.15,.52-.32,.72-.16,.19-.28,.4-.35,.63,0,.42,.29,.93,.34,1.45,0,.22-.07,.44-.2,.62-.66,1.03-1.1,2.1-1.65,3.08-.28,.5-.59,.98-.93,1.43-.79,1.11-1.4,2.25-2.22,3.3-.62,1.05-1.14,2.16-1.54,3.32-.54,1.05-1.02,2.13-1.45,3.22-.25,.56-.56,1.1-.83,1.65-1,1.57-1.87,3.21-2.62,4.91-.12,.29-.28,.56-.49,.79-.32,.39-.82,.63-1.06,1.05s-.14,.96-.42,1.31c-1.16,1.4-1.93,3.08-3.08,4.44-.9,1.27-1.99,2.39-3.24,3.32-.45,.25-.69,.76-1.05,1.13-.21,.3-.48,.56-.79,.76-.92,.47-1.77,1.08-2.51,1.8-.37,.37-.82,.65-1.31,.82-1.08,.39-1.99,1.13-2.61,2.1-.23,.28-.42,.66-.72,.8-1.34,.85-2.63,1.79-3.86,2.79-.93,.7-1.97,1.22-3.08,1.54-.4,0-.71,.42-1.08,.59s-.86,.77-1.54,.66c-.16-.01-.31,.05-.42,.17-1.28,1.54-2.96,2.53-4.24,4.12-1.21,1.3-2.63,2.38-4.21,3.19-.48,.28-.79,.82-1.45,.79-.22,0-.37,.34-.57,.48-.48,.4-.93,1-1.54,1.1-.9,.26-1.75,.67-2.51,1.2-.77,.44-1.58,.81-2.42,1.08-1.02,.38-2.01,.83-2.98,1.34-.23,.12-.47,.21-.72,.26-.64,0-1.21-.42-1.39-1.03-.11-.32-.2-.64-.26-.97-.22-.83-.14-1.06,.42-1.33s.8-.23,1.25-.42Z"/><path class="h" d="M273.28,193.07c-.4,.83-1.16,1.45-1.54,2.28-.58,1.08-1.24,2.11-1.97,3.08,0,0,0,.2-.12,.22-.88,.11-.82,.88-1.11,1.43-.51,1.02-.52,2.31-1.25,3.21-.67,.91-1.27,1.86-1.8,2.85-.36,.53-.65,1.1-.85,1.71-.45,1.45-1.12,2.81-1.99,4.06-.51,.8-1.02,1.62-1.45,2.47-.45,.84-.84,1.7-1.17,2.59-.2,.48-.39,.97-.56,1.45l-.57,1.48-.48,1.45-.25,.72-.19,.72c-.09,.21-.2,.41-.34,.59l-.2,.35c-.08,.13-.13,.28-.15,.43-.08,1-.66,1.89-1.54,2.36-.8,.45-1.67,.76-2.58,.93l-.86,.19c-.86-.29-1.76-.45-2.67-.48-.2-.03-.4-.08-.59-.15l-.52-.28c-.24-.15-.46-.32-.68-.49-.19-.14-.34-.4-.59-.45-1.02-.17-1.54-1.05-2.48-1.37-.14-.63-.69-.74-1.1-1.03-.44-.31-.86-.65-1.25-1.02-.59-.65-1.13-1.33-1.68-1.99-.18-.27-.4-.52-.65-.74-.88-.55-1.73-1.17-2.53-1.84-.79-.66-1.54-1.36-2.31-2.07-.35-.32-.76-.62-1.11-.96l-1.76-1.7c-.47-.5-.98-.96-1.54-1.36-1.39-.92-2.7-1.95-3.92-3.08-.96-.8-1.85-1.68-2.65-2.64-.4-.45-.87-.83-1.4-1.11-.45-.22-.79-.61-.94-1.08-.14-.45-.56-.75-1.03-.74-.46,0-.74-.48-1.03-.79-.77-.86-1.54-1.79-2.27-2.65-.07-.1-.16-.19-.28-.23-1.75-.87-3.39-1.95-4.86-3.24-.86-.63-1.77-1.19-2.73-1.67-.61-.34-1.14-.82-1.54-1.4-.25-.31-.15-.72,.31-1.23s.63-.63,.97-.93c.12-.11,.27-.16,.43-.14,.48,.26,1.19,.17,1.42,.88,.25,.78,.9,1.36,1.7,1.54,.62,.28,1.26,.5,1.93,.63,.25,.04,.46,.18,.59,.4,.65,1.17,1.73,2.04,3.01,2.42,.32,.09,.59,.3,.76,.59,.35,.51,.74,1,1.17,1.45,.08,.1,.2,.15,.32,.15,.66,0,1.13,.22,1.26,.86,.03,.08,.09,.14,.17,.17,.94,.2,1.28,1.08,1.93,1.64s1.54,1.11,2.38,1.7c.27,.24,.52,.5,.74,.79l1.42,1.54c.4,.33,.77,.71,1.1,1.11,.2,.31,0,.91,.31,1.14s.77,.11,1.14,.2c.16,.05,.29,.17,.35,.32,.5,.75,1.13,1.39,1.87,1.9,.34,.31,.65,.63,.96,.97,.79,.69,1.53,1.44,2.21,2.24,.59,.8,1.54,1.05,2.3,1.73,.7,.61,1.43,1.17,2.19,1.7,.37,.29,.72,.63,1.08,.97,.99,1.07,2.13,1.99,3.38,2.75,.22,.1,.42,.26,.57,.45,.23,.32,.37,.77,.66,1s.82,.08,1.06,.31c.53,.48,1.11,.89,1.74,1.22,.29,.17,.62,.32,.91,.48,.27,.14,.56,.25,.85,.34,.37,.14,.78,.14,1.16,0,.56-.25,1.08-.57,1.54-.97,.23-.23,.12-.69,.17-.99,0-.29,.07-.57,.2-.83,.46-.69,.8-1.45,1-2.25,.08-.41,.29-.78,.59-1.06,.8-.63,.82-1.54,.97-2.47,0-.29,0-.65,.17-.85,.86-.97,1.03-2.31,1.74-3.35,.56-.74,.91-1.64,1.8-2.14,.29-.15,.39-.52,.6-.77s.32-.85,.93-.96c.11-.03,.19-.12,.22-.23,.32-1.54,1.17-2.85,1.42-4.5,.29-1.36,.86-2.65,1.67-3.78,.23-.35,.2-.88,.71-1.05,.17,0,.11-.39,.19-.57,.15-.46,.17-1.06,.54-1.33,.53-.48,.94-1.08,1.2-1.74,.3-.59,.67-1.14,1.11-1.64,.5-.63,.92-1.32,1.25-2.05,.08-.18,.19-.35,.32-.49,.53-.23,1.15-.16,1.62,.19,.29,.19,.56,.37,.83,.57,.68,.51,.77,.71,.56,1.14s-.4,.49-.59,.82Z"/><path class="d" d="M76.88,118.49s9.56-11.45,14.48-5.06,29.83,43.59,29.83,43.59l14.93,23.85s4.52,3.73,0,8.84c-4.52,5.11-25.76,23.49-25.76,23.49l-21.3,14.14-20.56,11.94-6.8-2.73-20.3-53.49-7.56-32.16,2.96-5.63,40.07-26.78Z"/><path class="e" d="M68.55,239.96l-7.28-2.88v-.23l-20.36-53.63-7.6-32.39,3.08-5.94,.12-.09,40.03-26.68c.65-.76,6.32-7.23,11.26-7.13,1.62,.04,3.12,.84,4.06,2.16,4.86,6.32,29.6,43.19,29.85,43.62l14.9,23.8c1.19,1.1,1.94,2.59,2.11,4.2,.07,2.01-.7,3.96-2.13,5.38-4.49,5.09-24.94,22.72-25.77,23.46h0l-21.33,14.18-20.93,12.19Zm-6.4-3.78l6.31,2.55,20.35-11.8,21.24-14.11c.86-.76,21.32-18.51,25.68-23.41,1.21-1.19,1.88-2.82,1.85-4.52-.15-1.35-.79-2.6-1.79-3.52l-.12-.12-14.92-23.86c-.25-.35-24.97-37.25-29.82-43.54-.72-1.1-1.94-1.76-3.25-1.77-4.63-.11-10.35,6.71-10.41,6.79l-.11,.11-39.86,26.7-2.81,5.32,7.51,31.91,20.14,53.29Z"/><path class="h" d="M36.06,153.04c.85,3.25,1.26,6.57,2.19,9.84,.6,2.11,1.14,4.26,1.65,6.42s1.03,4.32,1.54,6.46c.11,.27,.2,.55,.25,.83,.13,2.22,.65,4.4,1.54,6.43,.6,1.96,1.33,3.83,2.07,5.69,.77,1.89,1.45,3.81,2.02,5.77,.26,.99,.56,1.97,.85,2.96s.63,1.94,.97,2.93l.96,2.92,1.05,2.9c.75,2.21,1.62,4.37,2.59,6.49,2.33,5,4.4,10.09,6.6,15.19l1.06,2.45,1.13,2.42,1.13,2.41c.28,.67,.64,1.31,1.06,1.9,.37,.43,.49,.46,.71,.48,.49-.01,.97-.13,1.4-.34,.34-.12,.72-.31,1.14-.48l1.22-.56,2.41-1.13c7.07-3.36,13.92-7.14,20.53-11.34,.72-.48,1.54-.85,2.27-1.26,.54-.23,1.06-.52,1.54-.85,3.08-2.85,7.16-4.26,10.3-7.03,1.65-.76,3.1-1.9,4.23-3.32,1.02-1.08,2.42-2.02,3.64-3.08,.69-.52,1.35-1.07,1.97-1.65,2.17-2.45,4.92-4.38,7.08-6.85,1.45-1,2.74-2.21,3.84-3.58,1.33-1.33,2.59-2.71,3.92-4.03,1.08-1.05,2.13-2.13,3.19-3.21l1.54-1.54c.44-.42,.85-.88,1.22-1.36l.22-.32c.04-.07,.07-.15,.09-.23,.04-.25,0-.51-.12-.74-.4-.69-.83-1.37-1.3-2.02l-1.54-2.33c-1.05-1.54-2.08-3.08-3.08-4.63-2.05-3.08-4.06-6.31-6.06-9.49l-2.9-4.43-4.63-7.48c-1.34-2.11-2.65-4.29-4.09-6.29-3.52-4.92-6.82-10-10.15-15.04-2.51-3.81-5-7.51-7.57-11.15-1.25-1.73-2.66-3.35-4.2-4.83-.62-.62-1.22-1.19-1.79-1.8s-.96-1.05-1.33-1.4c-.21-.28-.55-.41-.89-.35-.51,.18-.96,.5-1.31,.91-.53,.51-1.11,.97-1.73,1.37l-2.1,1.33c-3.59,2.25-7.22,4.46-10.8,6.68-.37,.23-.74,.48-1.08,.74-5.54,4.63-11.6,8.47-17.51,12.56-3.29,2.28-6.52,4.63-9.7,6.99-2.14,1.56-4.37,2.99-6.68,4.29-1.25,.71-1.9,.68-1.97,0-.04-.57,0-1.14,.12-1.7,.12-.34,.33-.64,.62-.86,1.49-1.37,3.15-2.55,4.94-3.5,2.53-1.12,4.87-2.62,6.94-4.44,1.76-1.54,3.7-2.85,5.34-4.44,.63-.61,1.33-1.13,2.1-1.54,4.15-2.19,8.03-4.84,11.58-7.9,.87-.77,1.83-1.43,2.85-1.99,1.9-1.05,3.76-2.27,5.65-3.42,.37-.22,.71-.5,1-.82,1.23-1.41,2.77-2.51,4.49-3.24,.27-.13,.51-.29,.72-.49,.57-.51,1.17-1,1.79-1.45,.63-.46,1.31-.89,1.99-1.3,.82-.47,1.74-.75,2.68-.82,1-.03,1.99,.25,2.82,.82,.81,.53,1.55,1.16,2.22,1.85l1.93,1.9c1.25,1.28,2.47,2.61,3.61,3.96,.85,1.03,1.54,2.14,2.34,3.24,1.45,2.07,2.82,4.18,4.18,6.31,1.03,1.54,2.16,3.22,3.08,4.87,.62,1.08,.77,2.33,1.4,3.33,.77,.96,1.6,1.87,2.5,2.71,.37,.48,.68,1,.94,1.54,1.54,2.85,3.33,5.54,5.12,8.27,.89,1.34,1.73,2.75,2.59,4.12,2.02,3.25,4.16,6.45,6.03,9.75,1.87,3.3,3.99,5.71,5.86,8.68s3.75,5.66,5.61,8.5c.48,.74,.96,1.43,1.45,2.24,.52,.81,.87,1.72,1,2.67,.06,.76-.1,1.51-.48,2.17-.35,.61-.77,1.17-1.25,1.68l-2.68,2.93c-.89,1-1.8,1.93-2.71,2.93l-2.64,2.98c-.59,.67-1.22,1.3-1.9,1.88-.52,.48-1.06,.88-1.54,1.3s-1.1,.85-1.54,1.31c-.93,.86-1.54,2.1-2.53,2.9-3.96,3.38-7.71,6.96-11.74,10.13-3.38,2.82-6.95,5.39-10.69,7.71-1.22,.68-2.33,1.73-3.55,2.55-.82,.62-1.68,1.19-2.58,1.7-1.33,.66-2.64,1.33-3.9,2.08l-1.9,1.14-1.94,1.1c-1.25,.78-2.57,1.44-3.95,1.97-1.62,.45-3.19,1.04-4.7,1.76-1.4,.74-2.76,1.54-4.13,2.36-.86,.53-1.76,1.01-2.68,1.42-.53,.19-1.05,.39-1.54,.6-.52,.22-1.05,.43-1.54,.63-.6,.24-1.23,.41-1.87,.49-.72,.08-1.44-.02-2.11-.29-.65-.29-1.23-.72-1.7-1.26-.41-.47-.78-.99-1.08-1.54-.31-.54-.54-1.05-.79-1.54s-.48-1.02-.71-1.54c-1.48-3.01-2.71-6.15-3.67-9.36-.26-1.06-.85-2.19-1.25-3.3-.7-1.44-1.19-2.97-1.45-4.55-.05-.42-.17-.83-.37-1.2-2.44-4.86-4.3-10.16-6.6-15.12-2.03-4.54-3.71-9.23-5.01-14.04-.59-1.45-1.01-2.97-1.25-4.52-.17-.68-.41-1.33-.71-1.96-.65-1.61-1.17-3.27-1.54-4.97-.5-2.6-1.13-5.18-1.9-7.71-.65-2.42-1.25-4.83-1.71-7.33-.56-3.08-1.39-6.05-2.1-9.07-.19-.71-.34-1.42-.45-2.14-.19-1.54,.2-2.62,.93-2.71,.35-.02,.7,.02,1.03,.12,.93,.2,1.2,.6,1.54,2.31l.77,3.93Z"/><path class="d" d="M198.39,191.02l-15.09,26.9-9.66,21.13s-2.71,3.67,3.55,5.44,31.48,2.34,31.48,2.34h46.81l5.71-3.79,10.27-28.1,1.43-3.92s5.8-5.06-7.03-11.83c-8.15-4.37-15.95-9.37-23.32-14.96l-23.94-14.22-8.21,1.08-12.02,19.93Z"/><path class="e" d="M255.7,247.4h-47c-1.03,0-25.37-.57-31.64-2.36-2.42-.68-3.89-1.74-4.37-3.08-.31-1.05-.14-2.18,.48-3.08l9.63-21.09,15.1-26.96,12.14-20.05,8.68-1.16,.17,.11,24,14.25c7.34,5.58,15.12,10.57,23.25,14.93,5.35,2.82,8.25,5.75,8.59,8.68,.17,1.45-.32,2.9-1.34,3.95l-11.72,32.07-5.97,3.79Zm-56.81-56.1l-15.07,26.9-9.69,21.18c-.44,.62-.58,1.41-.39,2.14,.35,1.03,1.54,1.87,3.62,2.42,6.17,1.74,31.1,2.3,31.34,2.31h46.63l5.4-3.58,11.68-31.91,.11-.09c.81-.81,1.22-1.94,1.1-3.08-.23-1.74-1.79-4.52-8.02-7.8-8.17-4.39-15.99-9.41-23.38-15.01l-23.74-14.1-7.71,1-11.88,19.62Z"/><path class="h" d="M254.26,248.35c-2.7,.48-5.43,.35-8.19,.62-3.59,.28-7.2,.32-10.8,.14-.24,.03-.47,.03-.71,0-1.77-.72-3.53-.31-5.38-.32-3.33,0-6.51,.48-9.9,.17s-6.68-.4-10.01-.56c-1.9-.09-3.83-.22-5.69-.14-4.51,.12-9.02-.02-13.51-.42-2.93-.23-5.85-.43-8.76-.63l-4.4-.25c-.44-.02-.88-.06-1.31-.14-.6-.08-1.18-.23-1.74-.45-1.23-.45-2.25-1.34-2.85-2.5-.64-1.33-.75-2.85-.32-4.26,.13-.49,.3-.98,.49-1.45l.43-1.14c.6-1.54,1.17-3.08,1.8-4.55,1.23-3.01,2.52-6.01,3.86-8.98,.29-.65,.69-1.26,1.05-1.9,.27-.39,.49-.81,.68-1.25,.54-1.64,1.3-3.2,2.27-4.63,.97-1.43,1.82-2.94,2.55-4.5,1.02-1.13,1.73-2.49,2.08-3.96,.52-1.21,1.13-2.38,1.84-3.5,.4-.59,.77-1.2,1.1-1.84,.96-2.58,2.75-4.77,3.92-7.22,.98-1.08,1.8-2.3,2.44-3.62,.85-1.31,1.68-2.64,2.59-3.9,1.54-2.02,3.08-3.98,4.63-5.94,.63-.71,1.21-1.46,1.76-2.24,.83-1.28,1.67-2.58,2.55-3.83l1.33-1.88,.68-.93c.22-.31,.45-.62,.72-.97,.64-.87,1.45-1.61,2.39-2.14,.55-.31,1.14-.52,1.76-.63,.58-.11,1.17-.14,1.76-.09,.98,.08,1.94,.3,2.85,.66,.83,.32,1.54,.69,2.27,1.02,1.3,.63,2.64,1.19,3.92,1.84,2.16,1.06,4.29,2.21,6.4,3.32,1.82,.96,3.59,2.01,5.44,2.85,4.45,2.15,8.79,4.52,13,7.11,3.19,1.9,6.28,3.96,9.25,6.17,1.45,1.06,2.96,2.04,4.52,2.93,1.25,.7,2.38,1.58,3.38,2.61,.86,.93,1.91,1.65,3.08,2.11,.55,.26,1.07,.59,1.54,.97,.54,.4,1.08,.85,1.64,1.34,.83,.71,1.55,1.54,2.13,2.47,.33,.53,.57,1.11,.72,1.71,.16,.61,.24,1.24,.22,1.87-.07,1.06-.32,2.1-.72,3.08-.34,.88-.69,1.64-1.03,2.44-.14,.33-.27,.66-.37,1-1.53,5.59-3.34,11.11-5.43,16.52-1.1,3.08-2.13,6.17-3.08,9.18-.65,2.04-1.45,4.03-2.41,5.95-.51,1.05-1.02,1.31-1.54,.8-.37-.37-.69-.8-.94-1.26-.1-.28-.1-.59,0-.88,.27-1.61,.79-3.17,1.54-4.63,1.21-1.88,2.07-3.98,2.51-6.17,.43-1.82,1.06-3.64,1.31-5.48,.12-.69,.36-1.36,.69-1.97,1.79-3.35,3.1-6.94,3.9-10.66,.21-.92,.54-1.81,.97-2.65,.39-.79,.77-1.54,1.11-2.42,.34-.75,.59-1.54,.76-2.34,.06-.29,.03-.59-.08-.86-.26-.5-.57-.98-.93-1.42-.32-.43-.72-.94-1.14-1.54-.12-.17-.29-.32-.48-.42-2.11-1.28-4.12-2.73-5.98-4.35-2.31-1.67-4.78-3.08-7.2-4.63-.89-.56-1.73-1.22-2.59-1.82-1.67-1.14-3.33-2.3-5.03-3.38-1.3-.86-2.68-1.54-3.92-2.51-.8-.6-1.31-1.54-2.14-2.02-.92-.4-1.87-.72-2.85-.93-.44-.18-.85-.42-1.22-.71-2.17-1.48-4.44-2.79-6.8-3.93-1.17-.62-2.31-1.26-3.47-1.9-2.71-1.45-5.54-2.81-8.21-4.3-1.22-.7-2.51-1.26-3.86-1.68-1.22-.46-2.57-.46-3.79,0-1.08,.73-1.98,1.71-2.62,2.85l-2.36,3.38c-.82,1.17-1.68,2.33-2.51,3.49-2.62,3.41-5.03,6.97-7.22,10.67-.36,.63-.77,1.24-1.22,1.8-.68,.89-1.54,1.68-2.1,2.64s-.72,2.01-1.3,2.84c-2.33,3.5-4.04,7.33-6.05,10.98-1.7,3.08-2.99,6.42-4.86,9.47-.54,1.05-1,2.13-1.39,3.24-.27,.79-.61,1.55-1,2.28-.63,1.01-1.19,2.07-1.67,3.16-.49,1.08-.97,2.17-1.4,3.27-.41,1.12-.93,2.2-1.54,3.22-.7,1.11-1.26,2.29-1.68,3.53-.23,.58-.41,1.19-.54,1.8-.12,.51-.12,1.04,0,1.54,.09,.3,.28,.56,.52,.76,.23,.17,.46,.33,.71,.48,.3,.19,.63,.33,.97,.4,.42,.09,.84,.15,1.26,.17,.93,0,1.84,.09,2.76,.12,1.84,0,3.66,0,5.48,.25,2.72,.13,5.42,.47,8.08,1,.94,.15,1.89,.25,2.84,.28,1.29,0,2.58,.17,3.83,.54,.32,.14,.67,.19,1.02,.15,4.4-.28,8.93,0,13.34-.42,4-.26,8-.26,12,0,1.25-.11,2.51-.05,3.75,.19,.56,.04,1.12,.01,1.67-.09,1.38-.18,2.76-.23,4.15-.15,2.09,.2,4.19,.2,6.28,0,1.99,0,3.92-.19,5.91-.2,2.42-.09,4.83-.37,7.2-.83,.57-.11,1.16-.2,1.7-.25,1.17,0,2.07,.4,2.17,1.11,.02,.34,0,.68-.08,1.02-.14,.89-.48,1.16-1.9,1.45-1.14,.26-2.21,.46-3.22,.59Z"/><path class="h" d="M214.36,149.7c-2.67,1.54-5.49,1.31-8.36,.79-4.41-.91-8.65-2.47-12.6-4.63-4.63-2.42-9.41-4.63-13.88-7.28-3.96-2.3-7.85-4.74-11.69-7.22-3.08-1.96-6.17-4.03-9.35-5.83-3.91-2.49-5.78-7.2-4.63-11.69,1.03-2.93,2.33-5.77,3.87-8.47,2.14-4.3,4.32-8.58,6.54-12.85,3.28-6.48,6.58-12.95,9.89-19.42,2.33-4.63,4.63-9.25,6.96-13.88,2.65-5.38,5.24-10.8,7.88-16.18,2.92-5.95,5.78-11.92,8.95-17.74,.86-1.83,2-3.52,3.38-5,2.39-2.25,5.8-3.07,8.95-2.14,2.06,.51,4.06,1.26,5.95,2.24,8.55,4,16.97,8.21,25.31,12.56,3.64,1.9,7.36,3.66,10.8,5.91,2.51,1.54,5.2,3.01,7.6,4.83,.44,.31,.83,.68,1.17,1.1,1.72,2.13,2.14,5.03,1.08,7.56-1.32,3.51-2.94,6.9-4.83,10.13-1.08,2.01-2.16,4-3.19,6.03-1.54,2.98-2.76,6.06-4.35,9.02-1.59,2.96-2.75,5.88-4.2,8.76-1.88,3.66-3.46,7.47-5.31,11.12-1.54,3.08-2.84,6.17-4.35,9.12-2.07,4.12-4.01,8.3-6.08,12.42-1.79,3.56-3.53,7.14-5.29,10.72-1.93,3.9-3.78,7.82-5.75,11.69-1.22,2.38-2.17,4.86-3.56,7.16-.27,.42-.58,.82-.91,1.19Z"/><path class="h" d="M262.51,52.63c-.89,2.97-1.98,5.88-3.25,8.7-2.21,5.4-4.75,10.61-7.25,15.89-3.08,6.71-6.4,13.42-9.63,20.05-2.9,6.08-5.77,12.15-8.75,18.19-2.51,5.03-4.52,10.15-7.14,14.99-1.3,2.44-2.67,4.86-3.93,7.31-.65,1.28-1.1,2.68-1.73,3.98-1.25,2.71-3.07,5.12-5.34,7.06-.4-.4-.08-.76,.09-1.11,.93-1.93,1.84-3.86,2.75-5.78,1.54-3.08,3.08-6.17,4.63-9.35,1.84-3.86,3.75-7.71,5.63-11.49,1.88-3.78,3.53-7.2,5.32-10.8,1.54-3.08,2.9-6.31,4.49-9.39,1.59-3.08,2.99-6.52,4.63-9.72s3.18-6.93,4.92-10.3c1.45-2.81,2.64-5.74,4.1-8.53s2.75-5.68,4.32-8.38c1.26-2.19,2.44-4.44,3.52-6.71,.65-1.36,1.17-2.76,1.85-4.07,.23-.23,.35-.6,.77-.54Z"/><path class="e" d="M262.13,53.15c-2.02,5.04-4.86,9.66-7.31,14.47-1.88,3.7-3.66,7.48-5.49,11.23-3.08,6.28-5.97,12.59-8.98,18.83-2.67,5.55-5.32,11.11-8.04,16.63-3.33,6.83-6.73,13.64-10.06,20.47-2.06,4.17-4.11,8.36-6.17,12.54-.23,.49-.8,.83-.52,1.54l-1.22,.82,5.6-11.29,9.52-19.31c1.73-3.52,3.46-7.02,5.14-10.54,2.9-6,5.74-12.02,8.61-18.02l5.88-12.25c3.08-6.59,6.4-13.11,9.9-19.51,1.14-2.06,2.1-4.21,2.87-6.43,.84-2.32,.61-4.89-.62-7.03l-.26-.56c1.45,1.31,2.17,3.24,1.93,5.18,0,.22-.19,.43,0,.66l-.19,.42c0,.35-.25,.63-.22,.99s-.35,.72-.37,1.16Z"/><path class="i" d="M262.13,53.15c.05-.42,.17-.82,.37-1.19q0-.17,.2-.11l-.19,.77c-.23,.09-.23,.35-.39,.52Z"/><path class="j" d="M262.7,51.86l-.2,.11c0-.34,.1-.68,.28-.97,.22,.31-.2,.56-.08,.86Z"/><path class="g" d="M262.98,50.58c-.42-.22-.15-.45,0-.66,.12,.22-.09,.45,0,.66Z"/><path class="f" d="M233.73,95.49l-10.8,22.69c-2.81,5.88-5.65,11.74-8.47,17.6-.37,.8-.8,1.54-1.14,2.39-.22,.48-.42,.57-.91,.29-3.08-1.73-6.32-3.44-9.49-5.15l-15.61-8.44-16.1-8.68c-2.58-1.39-5.14-2.79-7.71-4.15-.45-.25-.57-.43-.32-.93,2.66-5.37,5.31-10.73,7.93-16.09,1.54-3.21,3.08-6.43,4.63-9.66l9.36-19.1c1.84-3.69,3.61-7.4,5.41-11.11,3.08-6.39,6.22-12.78,9.41-19.17l4.12-8.44c.25-.52,.4-.65,1-.34,4.74,2.41,9.52,4.78,14.24,7.19l18.06,9.12,16.58,8.34c.45,.23,.51,.43,.29,.86-3.08,6.29-6.11,12.59-9.09,18.9l-4.52,9.25c-2.31,4.83-4.63,9.66-6.96,14.48l.08,.12Z"/><path class="e" d="M181.63,135.67c-2.09-1.07-2.93-3.62-1.88-5.72,.08-.14,.15-.28,.25-.42,1.33-2.37,4.33-3.21,6.7-1.88,.37,.21,.71,.46,1.01,.75,1.32,1.12,1.53,3.07,.48,4.44-.88,1.48-2.31,2.56-3.98,2.99-.85,.28-1.77,.22-2.58-.17Z"/><path class="e" d="M229.14,35.68c-1.08-.39-1.65-1.58-1.26-2.66v-.02h0s-.02-.06,0-.09c.6-1.36,2.02-1.71,3.72-.94,.71,.79,.96,1.88,.68,2.9-.77,.91-2.03,1.24-3.15,.82Z"/><path class="e" d="M236.55,37.33c-.36,.69-1.18,1-1.91,.72-.7-.31-1.02-1.12-.72-1.82h0c.29-.71,1.1-1.06,1.82-.79h0c.71,.33,1.06,1.14,.82,1.88Z"/><path class="h" d="M187.24,131.74c-.59,1.27-1.67,2.24-2.99,2.7-1.32,.58-2.87-.02-3.46-1.34h0c-.18-.4-.25-.84-.22-1.28,.14-1.59,1.26-2.92,2.81-3.32,1.4-.5,2.95,.06,3.7,1.34,.48,.52,.55,1.3,.15,1.9Z"/><path class="e" d="M230.6,34.03c-.16,.24-.48,.32-.74,.19-.26-.12-.52-.29-.32-.63,.1-.25,.38-.37,.63-.28h0c.31,.09,.5,.41,.43,.72Z"/><path class="e" d="M206.61,75.89c.11-.22,.39-.28,.49-.49,.14-.26,.31-.51,.51-.72h0c.37,.11,.25-.17,.31-.32s0-.74,.17-.94c.19-.2,.34-.44,.45-.69,.1-.14,.16-.3,.19-.46,.03-.4,.21-.78,.49-1.06,.33-.36,.6-.76,.82-1.19,.25-.48,.56-.97,.83-1.4,0,0,.11,0,.15-.09s.12,0,.11,0c-.08-.45,.56-.28,.6-.6,.29,0,.25-.11,.22-.29s.11-.2,.17-.29,.14,0,.12-.12c0-.32,.28-.35,.31-.62,.25,0,.23-.11,.29-.22,.08-.11,.18-.2,.29-.26,.19-.11,.4-.19,.6-.29s.19,0,.23-.11c.22-.46,.53-.86,.93-1.19,.08,0,.14-.19,.22-.28l.45-.4c.14-.1,.25-.23,.32-.39,.16-.38,.39-.73,.66-1.03,.18-.25,.41-.46,.68-.62,.13-.09,.22-.22,.26-.37,.02-.13,.15-.22,.28-.2h0c.19,0,.23,0,.15-.28s.08-.2,.19-.26,.52-.31,.79-.46h0c0-.59,.43-.88,.72-1.26,.16-.22,.29-.45,.39-.71,.08-.18,.25-.31,.45-.34,.11,0,.29,.08,.57,.32l.51,.52s.12,.14,.11,.17,0,.39-.22,.34c-.19-.06-.39,.04-.45,.23-.01,.04-.02,.07-.02,.11-.04,.19-.04,.39,0,.59,.02,.04,.02,.1,0,.14h0c-.33,0-.6,.27-.6,.6v.12c.01,.09-.05,.17-.14,.19-.16,.05-.3,.12-.43,.22v.09c0,.09,.08,.39-.19,.34s0,0,0,0c0,.31-.25,.31-.39,.48-.13,.2-.25,.41-.34,.63,0,.08-.14,.11-.22,.17-.14,.1-.27,.21-.4,.32-.14,.11-.17,.2-.31,.25s-.37-.09-.42,0,0,.26,.09,.39,0,.08-.08,.09c-.22,.08-.4,.23-.51,.43-.07,.08-.16,.15-.25,.22-.17,.19-.38,.35-.6,.48-.25,.11-.2,.45-.39,.6-.15,.17-.29,.36-.4,.56l-.25,.25c-.26,.25-.63,.4-.74,.79-.02,.06-.06,.11-.12,.12-.11,0-.28,0-.34,.08s0,.26,0,.31c-.31,.2-.37,.6-.6,.86s-.23,.57-.54,.68-.08,.2-.12,.29,0,.17-.09,.19-.32,.25-.43,.42-.11,.19-.23,.19-.32,.29-.34,.56,0,.22,0,.25c-.32,.11-.29,.56-.52,.74s-.26,.37-.6,.37-.11,.12-.19,.15,0,.25-.31,.17,0,0,0,0c-.07,.44-.12,.89-.12,1.34,.04,.38-.06,.76-.28,1.06,0,.09,0,.28-.19,.25s0,.12,0,.19,0,.35-.09,.39-.23,.25-.32,.42c-.07,.15-.19,.28-.32,.37-.2,.11-.28,.32-.4,.48s0,.09-.11,.11c-.27-.07-.52-.2-.72-.4l-.4-.37c-.32-.32-.39-.42-.32-.49l-.09-.34Z"/><path class="e" d="M217.24,57.07c-7.87,10.38-18.34,18.22-28.69,25.94-3.78,2.82,.97,8.41,4.74,5.58,10.8-8.1,21.69-16.41,29.92-27.32,2.85-3.76-3.08-7.96-5.98-4.21h.02Z"/><path class="e" d="M204.9,50.33c-.44,2.04-1.15,4.01-2.1,5.86l-2.53,6.69-5.18,13.39c-1.7,4.4,5.18,6.93,6.88,2.53l5.6-14.48c1.62-4.21,4.24-8.87,4.63-13.39,.39-4.52-6.86-5.32-7.3-.62v.02Z"/><path class="e" d="M203.05,55.22c-3.29,7.2-6.71,14.3-10.27,21.3-1.73,3.41-3.5,6.81-5.32,10.18-1.43,2.71-2.88,6.54-5.78,8.04-4.18,2.17-1.05,8.79,3.08,6.62,3.03-1.71,5.48-4.3,7-7.43,2.14-3.87,4.16-7.71,6.17-11.71,4.11-8.06,8.09-16.22,11.92-24.48,1.97-4.29-4.92-6.79-6.88-2.53l.08,.02Z"/><path class="e" d="M181.77,101.93c7.14-12.73,13.11-26.07,20.25-38.81,1.14-2.05-1.85-4.16-2.99-2.11-7.14,12.73-13.11,26.08-20.25,38.81-1.14,2.05,1.85,4.16,2.99,2.11Z"/><path class="e" d="M182.29,99.9c-.8,.97-.88,2.36-.19,3.41,.45,.92,1.56,1.3,2.48,.85,.13-.06,.25-.14,.36-.23,.56-.49-.52-.54,.46,.52,.31,.45,.69,.85,1.13,1.19,1.36,.89,2.42,.28,3.87,.54l-1.54-1.03c.72,1.54,.71,2.47,2.64,2.9,.65,.06,1.28-.23,1.65-.77l.22-.28c1.11-1.37-.71-3.7-2.28-2.7-.73,.45-1.39,1.01-1.93,1.68l3.33,1.22-.85,.19,1.1,1.05,1.8,1.77c.55,.62,1.43,.81,2.19,.49,1.64-.62,2.65,1.9,4.2,2.34,1.22,.35,.74-.31,2.22,.52,1.32,.88,2.59,1.85,3.78,2.9,.82,.58,1.96,.39,2.54-.44h0c5.15-9.27,10.44-18.52,15.3-28.02,4.86-9.5,9.07-19.14,13.3-28.84l-3.39-1.22c-.15,.39-.89-1.19-1.03-1.37-.31-.52-.78-.93-1.33-1.17-1.54-.65-4.94,1.06-4.7-2.05,.06-1.02-.73-1.89-1.75-1.95-.46-.02-.9,.12-1.26,.41-2.53,1.85-2.68-.26-4.72-1.22-.48-.24-1.01-.36-1.54-.34-.36-.03-.73-.04-1.1-.02,.39,.89,.54,1.06,.49,.52-.91-2.08-2.51-3.73-5.03-2.27s-2.88,5.94-4.07,8.28c-1.84,3.64-3.86,7.02-4.35,11.14-.06,1.02,.71,1.9,1.73,1.96,.62,.04,1.22-.24,1.6-.74,2.13-2.99,4.62-5.71,7.4-8.1,1.93-1.54,4.46-2.58,4.38-5.44,0-1.83-1.48-3.32-3.32-3.32-.15-.02-.31-.02-.46,0-2.82,.32-3.67,3.08-3.98,5.46-.06,1.02,.73,1.89,1.75,1.95,.46,.02,.9-.12,1.26-.41,1.21-1.4,3.14-1.95,4.91-1.39l.74-3.56c-2.53-.4-5.11-.29-7.6,.31-2.28,.56-1.64,4.16,.68,3.61,2.16-.54,4.42-.63,6.62-.26,1.01,.08,1.89-.68,1.97-1.69,.06-.81-.42-1.57-1.18-1.86-2.99-1.06-6.32-.29-8.55,1.97l3.01,1.54c.15-1.13,.72-1.54-.48-1.28-.48,.22-.93,.51-1.33,.85-1.27,.9-2.43,1.93-3.47,3.08-1.9,2.02-3.59,4.24-5.35,6.39l3.33,1.2c.46-3.75,2.48-6.88,4.13-10.18,.84-1.53,1.5-3.17,1.94-4.86,0-.2,.65-1.67,0-1.67-.31,0,.42,1.33,.42,1.33,.5,.73,1.34,1.15,2.22,1.13,.83,0,1.14-.28,1.97,.19,.51,.29,.91,1.02,1.4,1.37,2.36,1.64,4.74,.51,6.82-1l-3.08-1.54c-.29,2.87,1.64,5.49,4.47,6.05,.83,.15,2.14-.2,2.38,0,.52,.42,.65,1.54,1.28,1.99,.65,.51,1.46,.79,2.28,.79,1.68,.02,3.19-1.04,3.75-2.62,.89-2.21-2.51-3.42-3.44-1.26-3.9,9.32-7.99,18.73-12.62,27.83-4.83,9.55-10.21,18.83-15.42,28.2l2.55-.45c-1.6-1.43-3.32-2.71-5.14-3.86-.5-.35-1.11-.51-1.71-.46-1.79,.25,.37,.59-.48,0-1.11-.79-1.54-1.73-3.08-2.08-1.17-.27-2.39-.15-3.49,.34l2.19,.48c-1.42-1.37-3.53-4.47-5.69-4.63s-2.79,1.93-2.82,3.61c-.05,1.02,.73,1.89,1.75,1.94,.62,.03,1.21-.25,1.58-.74l.52-.48-2.28-2.71-.22,.28,1.65-.77c.93,.2,.97,.15,.35-.82-.23-.41-.59-.74-1.02-.94-.47-.12-.96-.2-1.45-.23-1.22-.25-.97-.39-1.54-1.08-1.71-2.04-3.47-2.07-5.57-.2l2.84,.62-.12,.26c1.33-1.96-1.68-4.06-2.99-2.1l.02,.02Z"/><path class="e" d="M186.64,100.54c6.17,5.12,11.92,10.97,20.25,12.14,.65,.06,1.28-.23,1.65-.77,3.58-5.17,5.63-11.11,8.75-16.57,3.28-5.19,6.22-10.58,8.81-16.15,1.13-2.68,2.14-5.41,3.29-8.1s3.08-5.31,4.18-8.07c.66-1.51-.03-3.26-1.53-3.92-.03-.01-.07-.03-.1-.04-3.01-1.44-6.1-2.7-9.25-3.78l-.79,3.53c1.1,.25,2.15,.7,3.08,1.34,.23,.17,2.16,2.16,2.45,1.54,0,.11-1.96,.85-2.05,.91-.52,.34-.99,.74-1.4,1.19-2.53,2.73-3.08,6.86-4.3,10.26-3.01,8.51-7.16,16.58-12.34,23.99-.58,.85-.37,2.02,.49,2.6,.85,.58,2.02,.37,2.6-.49,6.23-9.03,11.03-18.97,14.24-29.46,.26-1.02,.62-2.02,1.06-2.98,.86-1.7,1.97-1.97,3.52-2.73,1.27-.45,2-1.77,1.71-3.08-.77-3.73-5.46-5.97-8.75-6.69-2.08-.46-2.62,2.79-.79,3.53,2.34,.97,5.58,1.67,7.71,3.08,1.2-.42,1.34-.16,.42,.79-.37,.62-.74,1.25-1.08,1.88s-.82,1.54-1.2,2.36c-2.3,4.75-3.89,9.81-6.17,14.58s-5.52,9.25-8.05,14.01-4.41,9.89-7.53,14.36l1.65-.77c-7.47-1.05-12.86-6.89-18.51-11.48-1.84-1.54-3.92,1.54-2.11,2.99h.11Z"/><path class="e" d="M222.69,59.8c-8.3,6.51-14.55,15.04-22.07,22.35-3.22,3.08-7.27,5.8-9.58,9.7-2.79,4.78-.09,8.42,3.61,11.65,3.08,2.64,8.34,6.39,12.56,4.63,2.14-.89,3.08-3.08,4.15-4.95,1.22-2.38,2.33-4.78,3.39-7.25,4.23-9.79,7.71-20.38,15.3-28.24,3.22-3.35-1.39-8.96-4.74-5.6-4.71,4.71-9.08,9.73-13.1,15.04-1.8,2.38-3.46,4.86-5.32,7.2-1.98,2.27-4.27,4.24-6.8,5.86-4.32,3.08-5.09,10.92,1.45,11.91,6.54,.99,9.66-7.06,11.29-11.88,1.54-4.46-5.35-6.99-6.88-2.53-.64,2.01-1.51,3.93-2.59,5.74-.49,.8-2.68,2.85,.69,2.9,.51,0,1.99-1.31,2.41-1.54,2.95-2.13,5.52-4.74,7.6-7.71,4.85-6.82,10.18-13.27,15.96-19.31l-4.72-5.6c-5.55,6.1-9.97,13.15-13.03,20.81-1.84,4.18-3.49,8.42-5.35,12.59-.85,1.9-1.54,4.63-3.01,6.17,.88-.31,.96-.52,.26-.66-.46-.18-.92-.38-1.36-.62-.86-.45-1.69-.96-2.47-1.54-.79-.59-1.53-1.25-2.21-1.96l-.65-.72c-.65-1.05-.8-1.03-.45,0,.57-1.68,2.47-3.08,3.75-4.23,3.11-2.72,6.09-5.59,8.92-8.61,5.71-6.17,11.06-12.63,17.69-17.83,3.72-2.93-1.02-8.51-4.72-5.6v-.15Z"/><path class="e" d="M187.24,98.41c2.51,5.15,7.53,6.6,12.85,7.08,4.7,.42,5.31-6.88,.62-7.3-2.58-.23-5.58-.31-6.85-2.93-2.05-4.24-8.7-1.11-6.62,3.08v.06Z"/><path class="e" d="M208.94,109.78c3.36-10.25,7.68-20.16,12.93-29.58,2.28-4.09-3.69-8.33-5.98-4.23-5.6,9.98-10.22,20.47-13.79,31.34-1.54,4.47,5.4,7.02,6.86,2.53l-.02-.06Z"/><path class="e" d="M217.24,78.45c0,.83-1.45,2.75-1.85,3.38-.63,1.12-1.49,2.1-2.53,2.85-4.06,2.33-.96,8.96,3.08,6.62,4.49-2.59,8.93-8.84,8.42-14.18-.38-1.98-2.29-3.29-4.27-2.93-1.93,.45-3.18,2.32-2.85,4.27v-.02Z"/><path class="h" d="M215.7,59.06c.23-.17,.52,0,.77-.19,.33-.09,.67-.09,1,0h.08c.11,.37,.29,.14,.48,.12s.72-.31,1.03-.15c.3,.12,.6,.22,.91,.29,.18,.08,.36,.11,.56,.11,.5-.01,.98,.17,1.34,.51,.59,.49,1.08,1.09,1.45,1.76,.24,.48,.34,1.01,.29,1.54-.04,.5-.18,.99-.42,1.43-.06,.09-.14,.17-.23,.23,0,0-.15,0-.15,.12-.01,.25-.19,.46-.43,.52-.23,.09-.46,.14-.57,.34-.31-.11-.37,.08-.45,.31s-.26,.2-.4,.28-.2,0-.25,0c-.22,.35-.62,.25-.89,.46-.22-.19-.37,0-.54,0-.19,.03-.38,.03-.57,0-.3-.08-.59-.19-.86-.32-.11,0-.2-.14-.31-.14-.74-.01-1.45-.3-1.99-.8-.15-.09-.29-.2-.42-.32-.2-.22-.38-.45-.52-.71-.1-.22-.23-.43-.37-.63-.36-.48-.57-1.05-.6-1.65-.07-.46,0-.93,.2-1.34,.09-.2,.14-.42,.14-.65,0-.2,.14-.37,.32-.43,.22,0,.25-.2,.22-.43s.14-.32,.29-.42c.37-.24,.77-.4,1.2-.48,.04,0,.07,0,.11,0,.52-.51,1.24-.74,1.96-.63l1.22,.09c.29,.06,.54,.24,.69,.49,.09,.12,0,.32-.23,.62l-.48,.56s-.14,.14-.17,.14-.32,.14-.35-.12c0-.16-.12-.3-.28-.31-.06,0-.12,.01-.17,.04-.22,.11-.32,.09-.45,.31-.03,.04-.09,.05-.13,.03-.01,0-.02-.02-.03-.03-.15-.19-.42-.23-.62-.09-.07,.07-.13,.15-.15,.25-.05,.05-.13,.05-.19,0-.14-.04-.28-.04-.42,0v.09c0,.09,0,.34-.17,.26h0c.08,.29-.2,.26-.29,.42-.05,.2-.05,.4,0,.6,0,0-.08,.12-.11,.2s-.09,.28-.14,.42c.02,.12,.02,.24,0,.35,0,.08-.31,.22-.31,.29s.28,.11,.39,.14,0,0,0,.11c-.07,.21-.01,.44,.14,.6,.05,.09,.09,.19,.12,.29,.15,.21,.29,.42,.42,.65,.12,.25,.46,.17,.65,.29,.2,.11,.42,.17,.65,.2,.11,.02,.22,.05,.32,.09,.34,.09,.72,.29,1.08,.09,.06-.03,.13-.03,.19,0,.09,0,.22,.17,.32,.15s.12-.26,.2-.26c.39,0,.63-.34,.93-.49s.34-.49,.65-.57,0-.2,.11-.28,0-.17,0-.19c.18-.07,.29-.26,.26-.45,0-.09,.06-.17,.14-.22,.26-.19,0-.43-.17-.54s-.19,0-.17-.11c0-.32-.37-.37-.48-.57s-.34-.25-.35-.59-.12-.11-.17-.17-.25,0-.2-.29,0-.09,0,0c-.48,.11-.85,0-1.34,.19-.31,.14-.66,.18-1,.12-.09,0-.2,.14-.25,0s-.09,0-.12,.08-.22,.23-.26,.14-.22,0-.31,0h-.2c-.08,0-.12,0-.15,.08s0,0,0,0c-.19-.19-.37-.4-.54-.62l-.31-.43c-.26-.39-.29-.49-.19-.59l.05-.22Z"/><path class="h" d="M216.73,74.99c-.15-.09-.15-.35-.34-.43-.21-.11-.4-.26-.56-.45h0c.15-.32-.11-.22-.25-.25s-.63,.09-.79,0c-.17-.14-.36-.25-.57-.31-.11-.08-.25-.11-.39-.09-.31,.06-.63-.01-.88-.2-.29-.21-.63-.36-.99-.43-.42,0-.8-.19-1.2-.28l-.09-.11c-.09-.11,0-.11-.08,0-.32,.23-.31-.39-.57-.31,0-.29-.12-.19-.28-.09s-.17,0-.25,0,0-.11-.12,0-.34-.11-.56,0c0-.25-.14-.15-.23-.19-.11-.01-.2-.06-.28-.14-.13-.14-.26-.28-.37-.43,0,0,0-.15-.15-.15-.41-.02-.82-.14-1.17-.35l-.34-.49c-.09,0-.28-.15-.43-.23-.12-.08-.25-.13-.39-.15-.36,0-.71-.08-1.03-.23-.25-.08-.48-.23-.66-.42-.1-.1-.23-.15-.37-.12-.11,0-.2,0-.22-.23s-.09-.19-.26,0-.2,0-.28-.09-.32-.42-.48-.62,0,0,0,0c-.52,.11-.83-.2-1.19-.4-.21-.11-.44-.2-.68-.25-.15,0-.25-.17-.29-.35s0-.29,.29-.59,.31-.39,.48-.56l.15-.14c.11,0,.34-.11,.31,.14s0,.4,.29,.35,.29,0,.48-.09,.12,0,.12,0c0,.4,.29,.49,.65,.39,0,0,.14,0,.15,.09,.05,.12,.13,.23,.22,.32h.09c.2-.15,.31-.17,.29,0s0,0,0,0c0,0,.29,.14,.43,.22,.18,.06,.38,.09,.57,.09,.08,0,.12,.09,.17,.14l.32,.26c.09,0,.2,0,.26,.17s0,.37,0,.4,.22-.17,.31-.23,0,0,.08,0,.29,.23,.46,.29c.12,.07,.22,.17,.29,.29,.2,.08,.38,.19,.54,.34,.14,.17,.4,0,.57,.11,.18,.06,.36,.11,.54,.14l.26,.12c.26,.12,.48,.4,.8,.34,.04-.02,.08-.02,.12,0,0,.08,.08,.25,.14,.28s.22-.15,.28-.11,.56,.11,.82,.22,.52,0,.68,.25,.17,0,.26,0h.17s.26,.23,.43,.26c.1,0,.18,.07,.19,.17,0,.31,.29,.2,.52,.14s.19-.09,.22,0,.51,.14,.71,.31,.35,.17,.37,.48,.09,.09,.14,.15,.2,0,.14,.26,0,.08,0,.08c.43-.11,.71,0,1.2-.08,.34-.08,.69,0,.97,.2,.08,0,.26,0,.22,.17s.11,0,.17,0h.34s.22,.25,.35,.34c.14,.07,.24,.18,.31,.32,0,.2,.26,.28,.4,.42s0,0,0,.11c-.12,.26-.3,.48-.52,.65l-.42,.34c-.37,.28-.49,.32-.54,.26s-.05,.06-.09-.02Z"/><path class="h" d="M209.3,77.4c-.12,0-.09-.26-.23-.28s-.28-.17-.43-.25h0c.14-.34-.08-.17-.19-.17s-.49,.26-.62,.17c-.13-.09-.28-.13-.43-.12-.09-.05-.19-.05-.28,0-.21,.13-.47,.13-.68,0-.24-.13-.5-.2-.77-.2-.32,0-.63-.04-.94-.11v-.09c0-.09,0-.11,0-.08-.29,.26-.2-.34-.42-.25,0-.28-.08-.17-.2,0s-.14,0-.19,0,0-.09-.09,0-.25-.09-.42,0c0-.25,0-.15-.14-.17-.08-.02-.15-.06-.2-.12-.08-.13-.14-.26-.2-.4v-.14c-.3,0-.59-.11-.82-.29l-.19-.08-.28-.2c-.09,0-.15-.14-.26-.12-.24,.03-.48-.01-.69-.12-.18-.06-.33-.17-.43-.32h-.25c-.09,0-.14,0-.14-.19s0-.15-.19,0-.14,0-.19,0l-.32-.49h0c-.4,.22-.6,0-.86-.08-.16-.04-.33-.04-.49,0-.11,0-.17-.09-.22-.23,.01-.22,.08-.43,.2-.62l.31-.65c.03-.06,.06-.12,.11-.17,.09,0,.26-.2,.25,0s.08,.34,.23,.25,.22,0,.39-.23,.08,0,.09,0c0,.35,.22,.39,.48,.22s.11,0,.12,0c.04,.1,.09,.18,.15,.26h0c.15-.2,.25-.23,.22,0s0,0,0,0c0,0,.22,0,.32,.14,.14,.02,.28,.02,.42,0,0,0,.08,0,.12,.11,.07,.08,.14,.15,.22,.22,.08,0,.14,0,.19,.14s0,.35,0,.39,.17-.19,.26-.26,0,0,0,0c0,0,.19,.22,.31,.26,.05,.03,.1,.06,.14,.11,.12,.09,.26,.14,.35,.31s.29,0,.4,.08,.25,0,.37,.11c.06,.03,.12,.06,.17,.11,.19,.11,.29,.37,.54,.29s0,0,0,0v.26s.19-.17,.22-.12,.4,0,.57,.15,.39,0,.48,.17,.14,0,.2,0h.12s.17,.17,.29,.19,.11,0,.12,.12,.2,.14,.37,0,.14-.12,.17,0,.37,0,.51,.14,.25,0,.26,.37,.08,0,.11,.09,.15,0,.11,.2h0c.34-.2,.54-.12,.94-.39,.24-.14,.54-.14,.79,0,0,0,.22-.09,.19,.09s.09,0,.14,0,.29-.11,.29,0,.2,.19,.31,.23c.12,.04,.22,.13,.28,.25,0,.17,.23,.22,.35,.32s0,0,0,.11c-.12,.24-.3,.46-.52,.62l-.42,.35c-.37,.29-.45,.35-.49,.31v-.19Z"/><path class="h" d="M212.46,85.88c-.2,0-.26-.32-.48-.37-.25-.07-.49-.2-.69-.37h0c0-.35-.17-.2-.31-.23s-.66,.15-.86,0c-.2-.14-.42-.24-.65-.31-.14-.06-.28-.09-.43-.09-.35,.06-.71-.03-.99-.25-.35-.25-.73-.44-1.14-.56-.45-.14-.88-.31-1.31-.49,0,0,0-.08-.09-.12s0-.12,0-.09c-.4,.17-.31-.46-.6-.45,0-.28-.12-.22-.28-.14s-.19,0-.28-.09,0-.12-.12-.09-.34-.19-.57-.17c0-.25-.14-.19-.22-.23-.11-.05-.2-.12-.28-.22-.11-.15-.2-.34-.31-.51s0-.17-.12-.19c-.43-.11-.83-.32-1.16-.62-.1-.04-.19-.08-.28-.14l-.42-.32c-.1-.11-.23-.18-.37-.22-.36-.06-.7-.19-1-.39-.25-.1-.47-.27-.63-.48-.09-.1-.22-.15-.35-.14-.12,0-.2,0-.22-.25s-.09-.19-.26,0-.2,0-.26-.11c-.18-.2-.35-.41-.49-.63h0c-.23,.04-.47,.02-.68-.08-.1-.03-.19-.08-.28-.14l-.35-.19c-.17-.1-.34-.22-.49-.35-.12-.11-.24-.24-.34-.37-.09,0,0-.11,.37,.11h0l.14-.09,.23-.15h.14c.12-.08,.23-.19,.31-.31l.23-.29,.12-.14v-.22s0-.14-.22,0-.26,.43,0,.42c.15,.03,.31,0,.43-.09h.14c.09,.4,.35,.48,.72,.39,.05-.05,.13-.05,.19,0,.05,.14,.14,.26,.25,.35h.09c.2-.15,.32-.15,.32,.09s0,0,0,0c.28-.14,.31,.17,.48,.25,.2,.08,.41,.12,.62,.14,0,0,.12,.11,.17,.17l.34,.31c.09,.08,.22,.09,.28,.22s0,.37,0,.42,.23-.14,.34-.2,0,0,.09,0,.26,.29,.45,.39l.22,.17c.2,.12,.37,.28,.51,.46,.14,.2,.43,.09,.59,.23,.17,.1,.35,.19,.54,.26l.26,.17c.25,.2,.42,.49,.77,.54,.04-.02,.08-.02,.12,0,0,.09,0,.28,.09,.32s.25-.11,.29,0,.57,.23,.82,.4,.56,.09,.68,.37,.19,0,.28,0h.17s.25,.26,.42,.32,.17,0,.19,.2,.28,.23,.52,.2,.2,0,.22,0,.52,.17,.72,.35,.35,.17,.39,.48,.09,.09,.15,.15,.22,0,.15,.26,0,.09,0,0c.45-.11,.74,0,1.23-.12,.32-.11,.67-.08,.96,.09,.09,0,.26-.08,.25,.12s.11,0,.17,0,.31-.09,.35,0,.25,.2,.39,.26c.15,.04,.28,.13,.37,.25,.11,.17,.31,.2,.48,.29s0,0,.09,.09c-.03,.28-.15,.54-.34,.76-.09,.15-.22,.29-.32,.45s-.35,.43-.45,.39-.12,.2-.19,.15Z"/><path class="h" d="M203.75,89.42c-.14,0-.17-.23-.32-.22-.17-.03-.33-.1-.48-.2h0c.09-.34-.11-.15-.22-.15s-.51,.29-.63,.19c-.14-.09-.31-.14-.48-.14-.1-.05-.21-.05-.31,0-.22,.13-.5,.13-.72,0-.23-.16-.49-.26-.77-.29-.32-.04-.63-.11-.93-.22v-.11c0-.11,0-.09,0,0-.32,.22-.17-.37-.39-.31,0-.26,0-.17-.2,0s-.12,0-.19,0,0-.09-.08,0-.23-.11-.42,0c0-.23,0-.15-.12-.19-.16,.06-.34-.02-.4-.18-.05-.12-.01-.26,.09-.35-.07-.14-.12-.28-.17-.43v-.14c-.29-.04-.56-.17-.77-.39l-.19-.11-.25-.22c-.09-.08-.14-.15-.25-.15-.24,0-.48-.07-.68-.2-.17-.08-.31-.21-.4-.37,0-.09-.14-.11-.25-.09s-.14,0-.11-.19,0-.17-.19,0-.14,0-.17,0-.19-.35-.28-.52,0,0,0,0c-.4,.17-.59,0-.83-.19-.16-.06-.33-.09-.49-.08-.12,0-.17-.12-.2-.26s.08-.28,.26-.6l.32-.69c.03-.06,.07-.11,.12-.15,.08,0,.26-.17,.22,0s0,.34,.22,.26,.23,0,.4-.17,.09,0,.09,0c0,.35,.19,.42,.48,.26s.11,0,.12,0c.02,.11,.06,.21,.12,.29h.08c.17-.17,.26-.2,.22,0h0c.23-.17,.22,.11,.32,.17,.14,.03,.28,.03,.42,0,0,0,0,.09,.11,.14l.19,.23s.14,0,.17,.17-.09,.34,0,.37,.2-.15,.29-.22,0,0,0,0c0,0,.15,.23,.28,.29s.09,.08,.14,.12,.25,.17,.31,.34,.29,0,.4,.12,.23,.11,.35,.15c.06,.03,.11,.07,.15,.12,.17,.14,.25,.4,.49,.35s.08,0,.08,0h0c-.02,.09-.02,.18,0,.26,0,0,.19-.14,.22-.09s.4,.11,.57,.22,.39,0,.45,.22,.12,0,.19,0h.12s.15,.2,.26,.23,.12,0,.12,.14,.19,.17,.37,.09,.15-.11,.17,0,.35,0,.48,.19,.25,.09,.23,.39,0,0,.09,.09,.15,0,.09,.22h0c.34-.19,.54-.11,.93-.35,.21-.15,.48-.2,.72-.12,.08,0,.2-.12,.17,0s.09,0,.12,0,.26-.15,.26,0,.17,.12,.28,.14c.1,.01,.19,.07,.25,.15,0,.12,.2,.11,.31,.17s0,0,0,0c-.06,.26-.17,.52-.32,.74l-.28,.48c-.25,.4-.32,.49-.39,.45v.32Z"/><path class="h" d="M221.02,78.22l1.82,.76c.2,.05,.4,.05,.6,0,.2,.01,.41-.03,.59-.12,.35-.19,.62-.49,.77-.85,.16-.38,.16-.81,0-1.19l-.22-.34c-.17-.2-.38-.35-.63-.43l-1.82-.77c-.19-.08-.4-.1-.6-.08-.2,0-.4,.05-.59,.14-.18,.08-.34,.2-.46,.35-.14,.13-.25,.29-.31,.48-.16,.38-.16,.81,0,1.19l.22,.32c.17,.2,.39,.35,.63,.45v.09Z"/><path class="h" d="M215.7,88.26l1.37,.97c.35,.22,.76,.31,1.17,.25,.2-.03,.38-.11,.54-.23,.17-.09,.32-.22,.42-.39l.19-.35c.1-.26,.12-.53,.08-.8l-.12-.39c-.11-.23-.27-.43-.48-.59l-1.39-.97c-.16-.12-.34-.2-.54-.23-.2-.05-.41-.05-.62,0-.22,0-.43,.06-.62,.19-.18,.1-.32,.23-.43,.4l-.19,.35c-.07,.26-.07,.54,0,.8l.12,.37c.11,.24,.27,.44,.48,.6l.02,.02Z"/><path class="h" d="M211.87,95.19l1.54,.8c.38,.16,.81,.16,1.19,0,.34-.19,.61-.49,.77-.85l.08-.4c.03-.27-.02-.54-.14-.79l-.22-.32c-.17-.2-.38-.36-.63-.45l-1.54-.8c-.2-.05-.4-.05-.6,0-.4,0-.78,.17-1.03,.48-.15,.12-.26,.29-.32,.48l-.08,.4c-.03,.27,.02,.54,.14,.79l.22,.32c.17,.2,.39,.35,.63,.45v-.11Z"/><path class="h" d="M205.98,46.13c.14-.22,.28-.42,.43-.62l.22-.29c.09-.13,.2-.24,.32-.32,.18-.11,.42-.11,.6,0l.12,.09h0l.11,.12,.43,.48c.14,.17,.28,.34,.43,.49,.17,.14,.42,.14,.59,0,.31-.31,.62-.63,.91-.97h0c.15-.08,.31-.12,.48-.12,.21-.03,.42-.03,.63,0,.13,.04,.24,.11,.34,.2l.09,.12h0v.12l.35,.91,.17,.49c.04,.16,.18,.27,.34,.28,.16-.02,.3-.09,.42-.2l.39-.28,.43-.28c.18-.12,.37-.21,.57-.28,.44-.18,.93-.18,1.37,0,.43,.2,.82,.47,1.16,.8,.15,.13,.28,.28,.39,.45,.08,.23,.15,.46,.2,.69,.06,.23,.11,.46,.14,.69v.15c0,.06,.05,.11,.11,.11h0l.29-.19c.2-.11,.41-.21,.63-.29h.26c.11-.01,.22-.01,.32,0,.22-.02,.44-.02,.66,0,1.01,.23,1.9,.82,2.51,1.65,.09,.09,.17,.2,.23,.31,0,.08,.11,.12,.15,.2,.07,.13,.16,.26,.26,.37,.12,.09,.28,.12,.43,.08,.14-.06,.28-.13,.42-.22h.12l.19-.08,.48-.19c.34-.11,.69-.19,1.05-.23h.35c.14-.02,.29-.02,.43,0,.28,.02,.56,.08,.82,.19,.5,.29,.9,.73,1.13,1.26,.17,.41,.31,.83,.42,1.26l.09,.29c0,.06,0,.12,0,.19l.14,.29c.11,.21,.32,.34,.56,.34,.14-.02,.27-.06,.39-.14l.19-.09c.15-.08,.31-.13,.48-.17,.5-.17,1.04-.17,1.54,0,.46,.18,.88,.47,1.22,.83,.56,.63,1.01,1.35,1.33,2.13h0l-.22,.08h0l-.2-.28h0l.29-.25c.27-.19,.55-.35,.85-.48,.6-.26,1.26-.34,1.9-.22,.61,.13,1.15,.47,1.54,.96,.45,.58,.63,1.33,.48,2.05-.07,.38-.19,.76-.35,1.11l-.29,.69c-.37,.83-.72,1.7-1.1,2.55l-5.44,12.26c-1.99,4.5-4.12,8.96-6.31,13.39-.23,.48-.54,.97-.8,1.43-.21,.3-.39,.62-.54,.96-.91,2.51-2.65,4.52-3.75,6.91-.71,.89-1.25,1.9-1.62,2.98-.41,.91-.88,1.8-1.4,2.65-.3,.45-.57,.92-.82,1.4-.8,1.93-2.05,3.62-2.96,5.48-.58,.91-1.06,1.88-1.45,2.88-.6,1.03-1.2,2.05-1.85,3.08l-.22,.31c-.09,.15-.19,.29-.31,.42-.13,.16-.27,.31-.42,.45-.17,.15-.35,.29-.54,.4-.72,.49-1.63,.62-2.47,.35-.41-.15-.78-.37-1.11-.65l-.22-.2-.14-.15-.26-.26-.97-1.02c-.49-.54-1-1.06-1.54-1.54-.15-.14-.32-.27-.49-.39-.07-.02-.14-.02-.22,0h-.17l-.56,.15c-.3,.09-.61,.14-.93,.14-.49,0-.97-.17-1.36-.48-.35-.3-.61-.7-.74-1.14-.06-.21-.11-.43-.14-.65-.01-.1-.06-.19-.12-.26-.08-.04-.18-.04-.26,0h-.12l-.56,.14-.32,.09-.4,.08c-.34,.04-.69,.04-1.03,0-.36-.03-.72-.13-1.05-.29-.62-.31-1.07-.87-1.25-1.54l-.12-.48c-.06-.19-.19-.34-.35-.45-.2-.11-.43-.15-.66-.12-.16,0-.31,.07-.42,.19l-.26,.35h-.17c-.17,.06-.35,.11-.52,.14-.29,.04-.58,0-.85-.09-.21-.09-.41-.22-.57-.39-.07-.07-.13-.15-.19-.23l-.12-.2c-.06-.11-.11-.22-.15-.34-.03-.09-.06-.17-.08-.26,0-.14,0-.29,0-.43-.02-.06-.04-.13-.08-.19,0,0-.12,0-.19-.08h-.4c-.27-.04-.53-.11-.79-.2l-.54-.31c-.17-.08-.34-.18-.49-.29-.3-.22-.55-.5-.74-.82h0c-.09-.19-.17-.37-.25-.56v-.14h0v-.23c.02-.17-.05-.33-.19-.43h0s.01,.06,0,.09c-.03,.06-.08,.12-.14,.15-.04,.04-.1,.07-.15,.09h-.79c-.78-.01-1.52-.37-2.01-.99-.15-.18-.28-.38-.37-.6-.05-.11-.1-.21-.14-.32v-.15c-.02-.07-.02-.13,0-.2h-4.18v-.08l.09-.34c.23-.89,.48-1.77,.74-2.65,0-.23,.14-.45,.22-.68l.2-.56c.09-.26,.22-.52,.32-.79,1.08-2.61,2.4-5.12,3.95-7.48,.74-1.11,1.39-2.28,1.96-3.49,.43-.98,.94-1.91,1.54-2.79,.57-.78,1.01-1.65,1.3-2.58,.36-.91,.81-1.79,1.34-2.62l3.96-6.79c.14-.23,.26-.48,.37-.72,1.77-4.06,3.95-7.94,6.02-11.89,1.13-2.19,2.25-4.38,3.32-6.6,.75-1.44,1.58-2.83,2.48-4.16,.48-.76,.8-.94,1.02-.57,.16,.29,.27,.6,.32,.93,.02,.22,0,.43-.09,.63-.45,1.17-1.02,2.29-1.71,3.33-1.02,1.35-1.85,2.83-2.48,4.4-.56,1.31-1.23,2.62-1.7,3.93-.19,.5-.43,.97-.72,1.42-1.61,2.43-2.97,5.01-4.06,7.71-.26,.67-.59,1.32-.99,1.93-.72,1.13-1.4,2.33-2.08,3.52-.13,.23-.24,.47-.32,.72-.3,1.12-.82,2.17-1.54,3.08-.11,.15-.2,.31-.26,.48-.77,1.73-1.65,3.41-2.65,5.01-.52,.97-1,1.93-1.54,2.9s-1.02,1.96-1.54,2.9c-.4,.69-.88,1.37-1.31,2.05-.83,1.3-1.65,2.59-2.36,3.95-.28,.51-.52,1.05-.76,1.54-.11,.28-.25,.54-.34,.8l-.15,.34-.12,.29c-.11,.25-.31,.52-.48,.86-.1,.18-.18,.36-.26,.54v.14h.28c.36-.01,.72-.06,1.06-.15l.43-.11c.22-.05,.44-.09,.66-.11h.57l.62,.26h.14c-.05,.08-.08,.17-.09,.26-.07,.29-.07,.59,0,.88,.06,.11,.1,.23,.14,.35,.04,.1,.09,.2,.15,.29,.13,.16,.29,.28,.48,.35,.2,.05,.41,.05,.62,0,.25-.08,.49-.19,.71-.32,.18-.12,.35-.27,.48-.45,.06-.07,.12-.15,.15-.23v-.12h.14l.15,.11c.37,.33,.6,.8,.65,1.3,.05,.5,.15,.98,.32,1.45l.12,.19c.23,.24,.52,.42,.85,.49l1.2,.23c.31,.02,.6,.16,.8,.4,.17,.26,.28,.56,.31,.86,.05,.25,.11,.5,.2,.74,0,.08,0,.12,.12,.14h.17c.39-.38,.91-.59,1.45-.6,.7-.03,1.39,.22,1.91,.69,.26,.24,.45,.54,.56,.88,.06,.28,.17,.55,.32,.8,.24,.29,.61,.44,.99,.39,.19-.02,.37-.05,.56-.09l.62-.15c.54-.17,1.11-.25,1.68-.23,.6,.09,1.08,.57,1.17,1.17,.11,.62,.12,1.14,.43,1.33,.42,.12,.88,.09,1.28-.09,.28-.09,.58-.13,.88-.12,.47,.07,.92,.28,1.26,.6l.91,.86,1.74,1.73c.29,.28,.59,.6,.86,.82,.29,.24,.67,.33,1.03,.26,.36-.09,.69-.29,.94-.57,.25-.32,.47-.66,.66-1.02,.42-.69,.82-1.42,1.2-2.14,.26-.48,.56-.96,.85-1.39,.49-.71,1.05-1.36,1.54-2.1s.62-1.54,1.03-2.14c1.7-2.71,3.08-5.6,4.63-8.38,1.31-2.38,2.41-4.83,3.83-7.17,.43-.78,.82-1.59,1.16-2.42,.25-.58,.52-1.15,.83-1.7,.93-1.56,1.77-3.17,2.51-4.83,.37-.83,.79-1.64,1.26-2.42,1.01-1.69,1.84-3.49,2.47-5.37,.19-.59,.42-1.18,.68-1.74,1.36-2.47,2.25-5.14,3.42-7.71,.88-1.85,1.65-3.81,2.68-5.58,.1-.15,.18-.31,.25-.48l.2-.46c.14-.26,.22-.55,.25-.85,0-.22-.06-.44-.2-.62-.2-.22-.46-.37-.74-.45-.28-.06-.56-.09-.85-.08-.24,.01-.47,.11-.65,.26l-.34,.31c-.34,.29-.85,.29-1.19,0-.09-.07-.17-.15-.23-.25,0-.05,0-.1,0-.15v-.09c-.23-.56-.55-1.08-.96-1.54-.31-.41-.8-.63-1.31-.6-.11,.01-.21,.05-.31,.09l-.17,.08-.26,.14c-.37,.23-.8,.37-1.23,.39-.55-.02-1.06-.28-1.39-.72-.17-.23-.32-.47-.45-.72l-.29-.71c-.14-.35-.31-.69-.48-1.03-.11-.23-.37-.35-.62-.29h-.48l-.6,.2-.31,.12-.59,.26c-.43,.21-.91,.3-1.39,.23-.47-.08-.89-.33-1.19-.71l-.4-.62-.19-.35-.12-.19c-.12-.17-.24-.33-.39-.48-.2-.22-.46-.38-.74-.48-.22-.08-.44-.15-.66-.2h-.14c-.15,.03-.29,.09-.42,.19l-.39,.17-.2,.09h-.76c-.17,0-.34-.04-.49-.12-.14-.09-.27-.19-.39-.31-.07-.07-.14-.15-.2-.23-.07-.1-.13-.21-.17-.32-.15-.22-.12-.57-.26-.8v-.19c0-.08,0,0,0,0v-.08l-.31,.23-.26-.26-.14-.12h-.12l-.26,.15-.96,.71c-.39,.26-.84,.4-1.31,.39-.23,0-.46-.05-.68-.14-.11-.04-.21-.09-.31-.15h-.12l-.09-.15-1.14-2.24-.14-.28v-.08h0l1.45-.62h0v.08l-.08,.09c-.22,.38-.36,.79-.43,1.22h0c.01-.49-.09-.98-.29-1.42l1.13,1-2.41,1.42c-.38,.11-.79,.11-1.17,0-.09,0-.15-.11-.23-.17l-.22-.19-.43-.4-.83-.74-.23-.2h0l.97-.88h0l1.02,.83h0l-.09,.12-.19,.25c-.14,.17-.26,.35-.37,.54-.25,.37-.49,.76-.71,1.14s-.4,.74-.6,1.06c-.46,.72-.88,1.02-1.25,.89-.19-.08-.35-.2-.48-.35-.37-.35-.37-.69,.12-1.7,.34-.76,.72-1.5,1.14-2.22Z"/><path class="e" d="M139.32,94.49s29.14,.71,40.63,5.2c11.49,4.49,20.79,5.68,14.42,14.31s-26.48,6.34-26.48,6.34l-25.96,6.17-2.61-32.02Z"/><path class="e" d="M141.37,127.27l-2.67-33.36h.62c1.2,0,29.31,.76,40.83,5.23,1.85,.72,3.64,1.36,5.35,1.97,5.78,2.05,10.37,3.67,11.31,6.8,.54,1.76-.12,3.86-2.01,6.4-2.76,3.72-8.16,5.94-16.07,6.63-3.59,.3-7.2,.3-10.8,0l-26.56,6.32Zm-1.45-32.19l2.47,30.85,25.42-6.17h.08c.19,0,19.85,2.16,25.99-6.17,1.67-2.25,2.27-4.03,1.84-5.41-.79-2.59-5.12-4.12-10.61-6.08-1.73-.62-3.52-1.25-5.38-1.97-10.35-4.03-35.48-5-39.83-5.12l.03,.08Z"/><path class="h" d="M141.74,123.92c1.17-.29,2.41-.12,3.59-.43,1.56-.35,3.13-.6,4.72-.76,.11,0,.23-.11,.31,0,.86,.54,1.54,0,2.36-.22,1.38-.57,2.81-1.01,4.27-1.33,1.54-.11,2.93-.4,4.4-.63,.85-.09,1.68-.26,2.5-.51,1.9-.63,3.88-1.02,5.88-1.16,2.55-.2,5.08-.59,7.57-1.16,2.73-.65,5.46-1.22,8.14-1.93,.31-.03,.63-.03,.94,0h.57c.56-.4,1.24-.61,1.93-.62,.67,.01,1.33-.17,1.9-.52,.71,.22,1.08-.26,1.37-.77s.65-.56,.93-.82c.08-.07,.18-.13,.28-.17,.08-.06,.13-.14,.15-.23,.07-.32,.19-.63,.37-.91,0-.14,.12-.26,.17-.4,.03-.14,.03-.29,0-.43,.46-.23,.22-.6,.14-.91s-.2-.74-.32-1.17c-.22-.75-.56-1.47-1-2.11-.17-.3-.39-.55-.66-.76-1.03-.54-2.09-1.02-3.18-1.45-1.13-.48-2.38-.91-3.61-1.36-.57-.23-1.17-.35-1.77-.54l-1.45-.49-1.43-.45-1.26-.37c-.42-.12-.85-.2-1.28-.25-2.11-.19-4.18-.51-6.28-.79-1.59-.14-3.17-.36-4.74-.66-.76-.12-1.54-.12-2.3,0-.62,.1-1.25,.02-1.82-.25-.52-.28-1.15-.25-1.64,.09-.55,.16-1.13,.16-1.68,0l-2.25-.25-2.25-.22c-.16-.03-.32-.03-.48,0-1.24,.34-2.5,.56-3.78,.66l-3.83,.32c-1.41,.15-2.81,.38-4.2,.69-.94,.16-1.9,.16-2.84,0-.52,0-.76-.43-.71-1.13,.05-.45,.12-.9,.23-1.34,.04-.17,.15-.32,.31-.4,.72-.15,1.36-.69,2.16-.32,.95,.4,2.02,.4,2.98,0,.83-.22,1.63-.51,2.41-.86,.29-.16,.62-.21,.94-.15,1.68,.4,3.43,.28,5.04-.32,.41-.13,.85-.13,1.26,0,.79,.14,1.59,.22,2.39,.25,.17,.03,.34-.01,.48-.11,.57-.46,1.36-.54,2.01-.19,.1,.05,.21,.05,.31,0,1.11-.48,2.22,0,3.33,0s2.56-.12,3.86-.11c.48,.03,.95,.11,1.42,.22,.91,.11,1.8,.31,2.7,.45,.7,.06,1.39,.18,2.07,.37,.43,.15,.76,.76,1.17,.83s.93-.29,1.4-.39c.21-.03,.43,.01,.62,.12,1.1,.42,2.24,.73,3.41,.91,.57,.14,1.14,.31,1.7,.51,1.33,.36,2.64,.82,3.9,1.37,1.14,.6,2.45,.54,3.64,1.05s2.31,.85,3.42,1.45c.58,.32,1.12,.7,1.62,1.13,.77,.64,1.42,1.41,1.94,2.27,.51,.84,.95,1.73,1.33,2.64,.13,.32,.18,.66,.14,1,0,.54-.35,1.03-.43,1.54-.05,.24-.05,.49,0,.72,.04,.24,0,.49-.08,.72-.45,.75-.99,1.46-1.59,2.1-.64,.72-1.39,1.33-2.24,1.79-1.35,.89-2.88,1.5-4.47,1.79-.54,.12-1.05,.31-1.54,.56-.33,.17-.69,.28-1.06,.31-1.05,.01-2.09,.18-3.08,.51-.5,.16-1.02,.22-1.54,.17-1.17-.11-2.35,.14-3.38,.72-.35,.14-.69,.42-1.05,.4-1.63,.15-3.24,.4-4.84,.74-1.2,.2-2.42,.2-3.62,0-.42-.06-.85-.06-1.26,0-.59,0-1.16,.29-1.74-.09-.15-.08-.33-.08-.48,0-1.87,.8-3.86,1.03-5.71,1.96-1.64,.72-3.39,1.19-5.17,1.4-.54,.09-1.03,.48-1.64,.23-.2-.09-.49,.19-.71,.28-.6,.2-1.2,.62-1.79,.54-.94-.03-1.89,.09-2.79,.37-.87,.2-1.75,.32-2.64,.35-1.1,.08-2.2,.25-3.27,.51-.26,.04-.52,.04-.77,0-.62-.16-1.07-.7-1.1-1.34-.02-.33-.02-.67,0-1,0-.86,.14-1.06,.77-1.19s.82-.03,1.31-.11Z"/><path class="e" d="M313.92,146.23c1.05,1.08,2.68,1.36,4.03,.69,1.54-.74,1.79-2.36,2.7-3.67s2.11-2.67,3.08-4.07c.87-1.56,2.17-2.83,3.75-3.67,1.41-.44,2.23-1.9,1.9-3.33-.4-1.44-1.9-2.29-3.35-1.9-2.7,1.14-4.99,3.08-6.57,5.55-.86,1.23-1.7,2.42-2.64,3.58-.39,.46-.75,.94-1.08,1.45-.22,.3-.4,.62-.52,.97-.57,.96-.25,.97,.97,0l1.93,.8-.29-.26c-2.64-2.28-6.49,1.54-3.87,3.84l-.03,.02Z"/><path class="e" d="M314.2,150.5c1.19-.28,2.21-1.04,2.82-2.1,.74-1.3,.29-2.96-1.01-3.7-1.05-.6-2.38-.43-3.25,.42-1.17,1.23-2.16,2.62-2.93,4.13-.93,1.18-.73,2.88,.44,3.81,1.18,.93,2.88,.73,3.81-.44,.15-.19,.28-.4,.37-.63,.31-.62,.65-1.22,1.03-1.79,.09-.12,.2-.26,.28-.39s-.25,.26,0,0,.49-.56,.74-.82l-4.27-3.3,.2-.23q-.17,.17,0,0c.17-.17,.68-.29,.23-.19-1.44,.41-2.28,1.89-1.9,3.33,.44,1.45,1.95,2.28,3.41,1.88h.02Z"/></g></g></svg>